<svg width="10" height="18" viewBox="0 0 10 18" fill="none" xmlns="http://www.w3.org/2000/svg">
<path d="M1.71242 17.7496C1.89916 17.7502 2.08367 17.709 2.2524 17.629C2.42112 17.549 2.56977 17.4321 2.68742 17.2871L8.72492 9.78711C8.90877 9.56345 9.00928 9.2829 9.00928 8.99336C9.00928 8.70383 8.90877 8.42328 8.72492 8.19961L2.47492 0.699612C2.26274 0.444342 1.95786 0.283811 1.62732 0.253336C1.29679 0.222862 0.967689 0.324939 0.712418 0.537112C0.457147 0.749285 0.296617 1.05417 0.266142 1.38471C0.235667 1.71524 0.337744 2.04434 0.549917 2.29961L6.13742 8.99961L0.737418 15.6996C0.584564 15.8831 0.487468 16.1065 0.457619 16.3435C0.427769 16.5804 0.466415 16.8209 0.568985 17.0366C0.671555 17.2522 0.833755 17.434 1.03639 17.5604C1.23903 17.6867 1.47363 17.7524 1.71242 17.7496Z" fill="black" fill-opacity="0.7"/>
</svg>
