<svg width="451" height="565" viewBox="0 0 451 565" fill="none" xmlns="http://www.w3.org/2000/svg">
<rect width="451" height="565" rx="20" fill="white"/>
<path d="M48.672 33.152L44.28 50H39.312L36.624 38.912L33.84 50H28.872L24.6 33.152H28.992L31.416 45.416L34.416 33.152H38.928L41.808 45.416L44.256 33.152H48.672ZM63.3542 43.088C63.3542 43.472 63.3302 43.872 63.2822 44.288H53.9942C54.0582 45.12 54.3222 45.76 54.7862 46.208C55.2662 46.64 55.8502 46.856 56.5382 46.856C57.5622 46.856 58.2742 46.424 58.6742 45.56H63.0422C62.8182 46.44 62.4102 47.232 61.8182 47.936C61.2422 48.64 60.5142 49.192 59.6342 49.592C58.7542 49.992 57.7702 50.192 56.6822 50.192C55.3702 50.192 54.2022 49.912 53.1782 49.352C52.1542 48.792 51.3542 47.992 50.7782 46.952C50.2022 45.912 49.9142 44.696 49.9142 43.304C49.9142 41.912 50.1942 40.696 50.7542 39.656C51.3302 38.616 52.1302 37.816 53.1542 37.256C54.1782 36.696 55.3542 36.416 56.6822 36.416C57.9782 36.416 59.1302 36.688 60.1382 37.232C61.1462 37.776 61.9302 38.552 62.4902 39.56C63.0662 40.568 63.3542 41.744 63.3542 43.088ZM59.1542 42.008C59.1542 41.304 58.9142 40.744 58.4342 40.328C57.9542 39.912 57.3542 39.704 56.6342 39.704C55.9462 39.704 55.3622 39.904 54.8822 40.304C54.4182 40.704 54.1302 41.272 54.0182 42.008H59.1542ZM78.1432 43.088C78.1432 43.472 78.1193 43.872 78.0713 44.288H68.7833C68.8473 45.12 69.1113 45.76 69.5753 46.208C70.0553 46.64 70.6393 46.856 71.3273 46.856C72.3513 46.856 73.0633 46.424 73.4633 45.56H77.8313C77.6073 46.44 77.1993 47.232 76.6073 47.936C76.0313 48.64 75.3033 49.192 74.4233 49.592C73.5433 49.992 72.5593 50.192 71.4713 50.192C70.1593 50.192 68.9913 49.912 67.9673 49.352C66.9433 48.792 66.1433 47.992 65.5673 46.952C64.9913 45.912 64.7033 44.696 64.7033 43.304C64.7033 41.912 64.9833 40.696 65.5433 39.656C66.1193 38.616 66.9193 37.816 67.9433 37.256C68.9673 36.696 70.1433 36.416 71.4713 36.416C72.7673 36.416 73.9193 36.688 74.9273 37.232C75.9353 37.776 76.7193 38.552 77.2793 39.56C77.8553 40.568 78.1432 41.744 78.1432 43.088ZM73.9433 42.008C73.9433 41.304 73.7033 40.744 73.2233 40.328C72.7433 39.912 72.1433 39.704 71.4233 39.704C70.7353 39.704 70.1513 39.904 69.6713 40.304C69.2073 40.704 68.9193 41.272 68.8073 42.008H73.9433ZM88.4923 50L84.4123 44.384V50H80.3083V32.24H84.4123V42.056L88.4683 36.608H93.5323L87.9643 43.328L93.5803 50H88.4923ZM99.2483 32.24V50H95.1443V32.24H99.2483ZM115.902 36.608L107.502 56.36H103.086L106.158 49.544L100.71 36.608H105.294L108.39 44.984L111.462 36.608H115.902ZM127.92 50.192C126.752 50.192 125.712 49.992 124.8 49.592C123.888 49.192 123.168 48.648 122.64 47.96C122.112 47.256 121.816 46.472 121.752 45.608H125.808C125.856 46.072 126.072 46.448 126.456 46.736C126.84 47.024 127.312 47.168 127.872 47.168C128.384 47.168 128.776 47.072 129.048 46.88C129.336 46.672 129.48 46.408 129.48 46.088C129.48 45.704 129.28 45.424 128.88 45.248C128.48 45.056 127.832 44.848 126.936 44.624C125.976 44.4 125.176 44.168 124.536 43.928C123.896 43.672 123.344 43.28 122.88 42.752C122.416 42.208 122.184 41.48 122.184 40.568C122.184 39.8 122.392 39.104 122.808 38.48C123.24 37.84 123.864 37.336 124.68 36.968C125.512 36.6 126.496 36.416 127.632 36.416C129.312 36.416 130.632 36.832 131.592 37.664C132.568 38.496 133.128 39.6 133.272 40.976H129.48C129.416 40.512 129.208 40.144 128.856 39.872C128.52 39.6 128.072 39.464 127.512 39.464C127.032 39.464 126.664 39.56 126.408 39.752C126.152 39.928 126.024 40.176 126.024 40.496C126.024 40.88 126.224 41.168 126.624 41.36C127.04 41.552 127.68 41.744 128.544 41.936C129.536 42.192 130.344 42.448 130.968 42.704C131.592 42.944 132.136 43.344 132.6 43.904C133.08 44.448 133.328 45.184 133.344 46.112C133.344 46.896 133.12 47.6 132.672 48.224C132.24 48.832 131.608 49.312 130.776 49.664C129.96 50.016 129.008 50.192 127.92 50.192ZM143.319 46.52V50H141.231C139.743 50 138.583 49.64 137.751 48.92C136.919 48.184 136.503 46.992 136.503 45.344V40.016H134.871V36.608H136.503V33.344H140.607V36.608H143.295V40.016H140.607V45.392C140.607 45.792 140.703 46.08 140.895 46.256C141.087 46.432 141.407 46.52 141.855 46.52H143.319ZM144.789 43.28C144.789 41.904 145.045 40.696 145.557 39.656C146.085 38.616 146.797 37.816 147.693 37.256C148.589 36.696 149.589 36.416 150.693 36.416C151.637 36.416 152.461 36.608 153.165 36.992C153.885 37.376 154.437 37.88 154.821 38.504V36.608H158.925V50H154.821V48.104C154.421 48.728 153.861 49.232 153.141 49.616C152.437 50 151.613 50.192 150.669 50.192C149.581 50.192 148.589 49.912 147.693 49.352C146.797 48.776 146.085 47.968 145.557 46.928C145.045 45.872 144.789 44.656 144.789 43.28ZM154.821 43.304C154.821 42.28 154.533 41.472 153.957 40.88C153.397 40.288 152.709 39.992 151.893 39.992C151.077 39.992 150.381 40.288 149.805 40.88C149.245 41.456 148.965 42.256 148.965 43.28C148.965 44.304 149.245 45.12 149.805 45.728C150.381 46.32 151.077 46.616 151.893 46.616C152.709 46.616 153.397 46.32 153.957 45.728C154.533 45.136 154.821 44.328 154.821 43.304ZM169.358 46.52V50H167.27C165.782 50 164.622 49.64 163.79 48.92C162.958 48.184 162.542 46.992 162.542 45.344V40.016H160.91V36.608H162.542V33.344H166.646V36.608H169.334V40.016H166.646V45.392C166.646 45.792 166.742 46.08 166.934 46.256C167.126 46.432 167.446 46.52 167.894 46.52H169.358ZM184.868 36.608V50H180.764V48.176C180.348 48.768 179.78 49.248 179.06 49.616C178.356 49.968 177.572 50.144 176.708 50.144C175.684 50.144 174.78 49.92 173.996 49.472C173.212 49.008 172.604 48.344 172.172 47.48C171.74 46.616 171.524 45.6 171.524 44.432V36.608H175.604V43.88C175.604 44.776 175.836 45.472 176.3 45.968C176.764 46.464 177.388 46.712 178.172 46.712C178.972 46.712 179.604 46.464 180.068 45.968C180.532 45.472 180.764 44.776 180.764 43.88V36.608H184.868ZM193.264 50.192C192.096 50.192 191.056 49.992 190.144 49.592C189.232 49.192 188.512 48.648 187.984 47.96C187.456 47.256 187.16 46.472 187.096 45.608H191.152C191.2 46.072 191.416 46.448 191.8 46.736C192.184 47.024 192.656 47.168 193.216 47.168C193.728 47.168 194.12 47.072 194.392 46.88C194.68 46.672 194.824 46.408 194.824 46.088C194.824 45.704 194.624 45.424 194.224 45.248C193.824 45.056 193.176 44.848 192.28 44.624C191.32 44.4 190.52 44.168 189.88 43.928C189.24 43.672 188.688 43.28 188.224 42.752C187.76 42.208 187.528 41.48 187.528 40.568C187.528 39.8 187.736 39.104 188.152 38.48C188.584 37.84 189.208 37.336 190.024 36.968C190.856 36.6 191.84 36.416 192.976 36.416C194.656 36.416 195.976 36.832 196.936 37.664C197.912 38.496 198.472 39.6 198.616 40.976H194.824C194.76 40.512 194.552 40.144 194.2 39.872C193.864 39.6 193.416 39.464 192.856 39.464C192.376 39.464 192.008 39.56 191.752 39.752C191.496 39.928 191.368 40.176 191.368 40.496C191.368 40.88 191.568 41.168 191.968 41.36C192.384 41.552 193.024 41.744 193.888 41.936C194.88 42.192 195.688 42.448 196.312 42.704C196.936 42.944 197.48 43.344 197.944 43.904C198.424 44.448 198.672 45.184 198.688 46.112C198.688 46.896 198.464 47.6 198.016 48.224C197.584 48.832 196.952 49.312 196.12 49.664C195.304 50.016 194.352 50.192 193.264 50.192Z" fill="black" fill-opacity="0.85"/>
<path d="M31.744 67.88V69.368H27.024V72.648H30.704V74.136H27.024V79H25.2V67.88H31.744ZM35.2584 71.464C35.525 71.016 35.877 70.6693 36.3144 70.424C36.7624 70.168 37.2904 70.04 37.8984 70.04V71.928H37.4344C36.7197 71.928 36.1757 72.1093 35.8024 72.472C35.4397 72.8347 35.2584 73.464 35.2584 74.36V79H33.4344V70.184H35.2584V71.464ZM43.399 79.144C42.567 79.144 41.815 78.9573 41.143 78.584C40.471 78.2 39.943 77.6667 39.559 76.984C39.175 76.2907 38.983 75.4907 38.983 74.584C38.983 73.688 39.1803 72.8933 39.575 72.2C39.9697 71.5067 40.5083 70.9733 41.191 70.6C41.8737 70.2267 42.6363 70.04 43.479 70.04C44.3217 70.04 45.0843 70.2267 45.767 70.6C46.4497 70.9733 46.9883 71.5067 47.383 72.2C47.7777 72.8933 47.975 73.688 47.975 74.584C47.975 75.48 47.7723 76.2747 47.367 76.968C46.9617 77.6613 46.407 78.2 45.703 78.584C45.0097 78.9573 44.2417 79.144 43.399 79.144ZM43.399 77.56C43.8683 77.56 44.3057 77.448 44.711 77.224C45.127 77 45.463 76.664 45.719 76.216C45.975 75.768 46.103 75.224 46.103 74.584C46.103 73.944 45.9803 73.4053 45.735 72.968C45.4897 72.52 45.1643 72.184 44.759 71.96C44.3537 71.736 43.9163 71.624 43.447 71.624C42.9777 71.624 42.5403 71.736 42.135 71.96C41.7403 72.184 41.4257 72.52 41.191 72.968C40.9563 73.4053 40.839 73.944 40.839 74.584C40.839 75.5333 41.079 76.2693 41.559 76.792C42.0497 77.304 42.663 77.56 43.399 77.56ZM60.4501 70.04C61.1435 70.04 61.7621 70.184 62.3061 70.472C62.8608 70.76 63.2928 71.1867 63.6021 71.752C63.9221 72.3173 64.0821 73 64.0821 73.8V79H62.2741V74.072C62.2741 73.2827 62.0768 72.68 61.6821 72.264C61.2875 71.8373 60.7488 71.624 60.0661 71.624C59.3835 71.624 58.8395 71.8373 58.4341 72.264C58.0395 72.68 57.8421 73.2827 57.8421 74.072V79H56.0341V74.072C56.0341 73.2827 55.8368 72.68 55.4421 72.264C55.0475 71.8373 54.5088 71.624 53.8261 71.624C53.1435 71.624 52.5995 71.8373 52.1941 72.264C51.7995 72.68 51.6021 73.2827 51.6021 74.072V79H49.7781V70.184H51.6021V71.192C51.9008 70.8293 52.2795 70.5467 52.7381 70.344C53.1968 70.1413 53.6875 70.04 54.2101 70.04C54.9141 70.04 55.5435 70.1893 56.0981 70.488C56.6528 70.7867 57.0795 71.2187 57.3781 71.784C57.6448 71.2507 58.0608 70.8293 58.6261 70.52C59.1915 70.2 59.7995 70.04 60.4501 70.04ZM70.0794 69V67.336H73.4074V79H71.5674V69H70.0794ZM87.0134 76.728H82.3574L81.5574 79H79.6534L83.6374 67.864H85.7494L89.7334 79H87.8134L87.0134 76.728ZM86.5014 75.24L84.6934 70.072L82.8694 75.24H86.5014ZM99.4496 70.184V79H97.6256V77.96C97.3376 78.3227 96.959 78.6107 96.4896 78.824C96.031 79.0267 95.5403 79.128 95.0176 79.128C94.3243 79.128 93.7003 78.984 93.1456 78.696C92.6016 78.408 92.1696 77.9813 91.8496 77.416C91.5403 76.8507 91.3856 76.168 91.3856 75.368V70.184H93.1936V75.096C93.1936 75.8853 93.391 76.4933 93.7856 76.92C94.1803 77.336 94.719 77.544 95.4016 77.544C96.0843 77.544 96.623 77.336 97.0176 76.92C97.423 76.4933 97.6256 75.8853 97.6256 75.096V70.184H99.4496ZM105.408 70.04C106.091 70.04 106.694 70.1787 107.216 70.456C107.75 70.7227 108.166 71.0587 108.464 71.464V70.184H110.304V79.144C110.304 79.9547 110.134 80.6747 109.792 81.304C109.451 81.944 108.955 82.4453 108.304 82.808C107.664 83.1707 106.896 83.352 106 83.352C104.806 83.352 103.814 83.0693 103.024 82.504C102.235 81.9493 101.787 81.192 101.68 80.232H103.488C103.627 80.6907 103.92 81.0587 104.368 81.336C104.827 81.624 105.371 81.768 106 81.768C106.736 81.768 107.328 81.544 107.776 81.096C108.235 80.648 108.464 79.9973 108.464 79.144V77.672C108.155 78.088 107.734 78.44 107.2 78.728C106.678 79.0053 106.08 79.144 105.408 79.144C104.64 79.144 103.936 78.952 103.296 78.568C102.667 78.1733 102.166 77.6293 101.792 76.936C101.43 76.232 101.248 75.4373 101.248 74.552C101.248 73.6667 101.43 72.8827 101.792 72.2C102.166 71.5173 102.667 70.9893 103.296 70.616C103.936 70.232 104.64 70.04 105.408 70.04ZM108.464 74.584C108.464 73.976 108.336 73.448 108.08 73C107.835 72.552 107.51 72.2107 107.104 71.976C106.699 71.7413 106.262 71.624 105.792 71.624C105.323 71.624 104.886 71.7413 104.48 71.976C104.075 72.2 103.744 72.536 103.488 72.984C103.243 73.4213 103.12 73.944 103.12 74.552C103.12 75.16 103.243 75.6933 103.488 76.152C103.744 76.6107 104.075 76.9627 104.48 77.208C104.896 77.4427 105.334 77.56 105.792 77.56C106.262 77.56 106.699 77.4427 107.104 77.208C107.51 76.9733 107.835 76.632 108.08 76.184C108.336 75.7253 108.464 75.192 108.464 74.584ZM123.624 72.44V73.976H117.048V72.44H123.624ZM129.892 69V67.336H133.22V79H131.38V69H129.892ZM136.734 76.52C137.758 75.6347 138.563 74.9093 139.15 74.344C139.747 73.768 140.243 73.1707 140.638 72.552C141.032 71.9333 141.23 71.3147 141.23 70.696C141.23 70.056 141.075 69.5547 140.766 69.192C140.467 68.8293 139.992 68.648 139.342 68.648C138.712 68.648 138.222 68.8507 137.87 69.256C137.528 69.6507 137.347 70.184 137.326 70.856H135.566C135.598 69.64 135.96 68.712 136.654 68.072C137.358 67.4213 138.248 67.096 139.326 67.096C140.488 67.096 141.395 67.416 142.046 68.056C142.707 68.696 143.038 69.5493 143.038 70.616C143.038 71.384 142.84 72.1253 142.446 72.84C142.062 73.544 141.598 74.1787 141.054 74.744C140.52 75.2987 139.838 75.944 139.006 76.68L138.286 77.32H143.358V78.84H135.582V77.512L136.734 76.52ZM156.06 76.728H151.404L150.604 79H148.7L152.684 67.864H154.796L158.78 79H156.86L156.06 76.728ZM155.548 75.24L153.74 70.072L151.916 75.24H155.548ZM168.497 70.184V79H166.673V77.96C166.385 78.3227 166.006 78.6107 165.537 78.824C165.078 79.0267 164.587 79.128 164.065 79.128C163.371 79.128 162.747 78.984 162.193 78.696C161.649 78.408 161.217 77.9813 160.897 77.416C160.587 76.8507 160.433 76.168 160.433 75.368V70.184H162.241V75.096C162.241 75.8853 162.438 76.4933 162.833 76.92C163.227 77.336 163.766 77.544 164.449 77.544C165.131 77.544 165.67 77.336 166.065 76.92C166.47 76.4933 166.673 75.8853 166.673 75.096V70.184H168.497ZM174.455 70.04C175.138 70.04 175.74 70.1787 176.263 70.456C176.796 70.7227 177.212 71.0587 177.511 71.464V70.184H179.351V79.144C179.351 79.9547 179.18 80.6747 178.839 81.304C178.498 81.944 178.002 82.4453 177.351 82.808C176.711 83.1707 175.943 83.352 175.047 83.352C173.852 83.352 172.86 83.0693 172.071 82.504C171.282 81.9493 170.834 81.192 170.727 80.232H172.535C172.674 80.6907 172.967 81.0587 173.415 81.336C173.874 81.624 174.418 81.768 175.047 81.768C175.783 81.768 176.375 81.544 176.823 81.096C177.282 80.648 177.511 79.9973 177.511 79.144V77.672C177.202 78.088 176.78 78.44 176.247 78.728C175.724 79.0053 175.127 79.144 174.455 79.144C173.687 79.144 172.983 78.952 172.343 78.568C171.714 78.1733 171.212 77.6293 170.839 76.936C170.476 76.232 170.295 75.4373 170.295 74.552C170.295 73.6667 170.476 72.8827 170.839 72.2C171.212 71.5173 171.714 70.9893 172.343 70.616C172.983 70.232 173.687 70.04 174.455 70.04ZM177.511 74.584C177.511 73.976 177.383 73.448 177.127 73C176.882 72.552 176.556 72.2107 176.151 71.976C175.746 71.7413 175.308 71.624 174.839 71.624C174.37 71.624 173.932 71.7413 173.527 71.976C173.122 72.2 172.791 72.536 172.535 72.984C172.29 73.4213 172.167 73.944 172.167 74.552C172.167 75.16 172.29 75.6933 172.535 76.152C172.791 76.6107 173.122 76.9627 173.527 77.208C173.943 77.4427 174.38 77.56 174.839 77.56C175.308 77.56 175.746 77.4427 176.151 77.208C176.556 76.9733 176.882 76.632 177.127 76.184C177.383 75.7253 177.511 75.192 177.511 74.584Z" fill="black" fill-opacity="0.5"/>
<path d="M57.744 436.88V438.368H53.024V441.648H56.704V443.136H53.024V448H51.2V436.88H57.744ZM60.3624 438.016C60.0317 438.016 59.7544 437.904 59.5304 437.68C59.3064 437.456 59.1944 437.179 59.1944 436.848C59.1944 436.517 59.3064 436.24 59.5304 436.016C59.7544 435.792 60.0317 435.68 60.3624 435.68C60.6824 435.68 60.9544 435.792 61.1784 436.016C61.4024 436.24 61.5144 436.517 61.5144 436.848C61.5144 437.179 61.4024 437.456 61.1784 437.68C60.9544 437.904 60.6824 438.016 60.3624 438.016ZM61.2584 439.184V448H59.4344V439.184H61.2584ZM68.1011 439.04C68.7945 439.04 69.4131 439.184 69.9571 439.472C70.5118 439.76 70.9438 440.187 71.2531 440.752C71.5625 441.317 71.7171 442 71.7171 442.8V448H69.9091V443.072C69.9091 442.283 69.7118 441.68 69.3171 441.264C68.9225 440.837 68.3838 440.624 67.7011 440.624C67.0185 440.624 66.4745 440.837 66.0691 441.264C65.6745 441.68 65.4771 442.283 65.4771 443.072V448H63.6531V439.184H65.4771V440.192C65.7758 439.829 66.1545 439.547 66.6131 439.344C67.0825 439.141 67.5785 439.04 68.1011 439.04ZM77.5958 439.04C78.2784 439.04 78.8811 439.179 79.4038 439.456C79.9371 439.723 80.3531 440.059 80.6518 440.464V439.184H82.4918V448.144C82.4918 448.955 82.3211 449.675 81.9798 450.304C81.6384 450.944 81.1424 451.445 80.4918 451.808C79.8518 452.171 79.0838 452.352 78.1878 452.352C76.9931 452.352 76.0011 452.069 75.2118 451.504C74.4224 450.949 73.9744 450.192 73.8678 449.232H75.6758C75.8144 449.691 76.1078 450.059 76.5558 450.336C77.0144 450.624 77.5584 450.768 78.1878 450.768C78.9238 450.768 79.5158 450.544 79.9638 450.096C80.4224 449.648 80.6518 448.997 80.6518 448.144V446.672C80.3424 447.088 79.9211 447.44 79.3878 447.728C78.8651 448.005 78.2678 448.144 77.5958 448.144C76.8278 448.144 76.1238 447.952 75.4838 447.568C74.8544 447.173 74.3531 446.629 73.9798 445.936C73.6171 445.232 73.4358 444.437 73.4358 443.552C73.4358 442.667 73.6171 441.883 73.9798 441.2C74.3531 440.517 74.8544 439.989 75.4838 439.616C76.1238 439.232 76.8278 439.04 77.5958 439.04ZM80.6518 443.584C80.6518 442.976 80.5238 442.448 80.2678 442C80.0224 441.552 79.6971 441.211 79.2918 440.976C78.8864 440.741 78.4491 440.624 77.9798 440.624C77.5104 440.624 77.0731 440.741 76.6678 440.976C76.2624 441.2 75.9318 441.536 75.6758 441.984C75.4304 442.421 75.3078 442.944 75.3078 443.552C75.3078 444.16 75.4304 444.693 75.6758 445.152C75.9318 445.611 76.2624 445.963 76.6678 446.208C77.0838 446.443 77.5211 446.56 77.9798 446.56C78.4491 446.56 78.8864 446.443 79.2918 446.208C79.6971 445.973 80.0224 445.632 80.2678 445.184C80.5238 444.725 80.6518 444.192 80.6518 443.584ZM92.9675 443.376C92.9675 443.707 92.9462 444.005 92.9035 444.272H86.1675C86.2208 444.976 86.4822 445.541 86.9515 445.968C87.4208 446.395 87.9968 446.608 88.6795 446.608C89.6608 446.608 90.3542 446.197 90.7595 445.376H92.7275C92.4608 446.187 91.9755 446.853 91.2715 447.376C90.5782 447.888 89.7142 448.144 88.6795 448.144C87.8368 448.144 87.0795 447.957 86.4075 447.584C85.7462 447.2 85.2235 446.667 84.8395 445.984C84.4662 445.291 84.2795 444.491 84.2795 443.584C84.2795 442.677 84.4608 441.883 84.8235 441.2C85.1968 440.507 85.7142 439.973 86.3755 439.6C87.0475 439.227 87.8155 439.04 88.6795 439.04C89.5115 439.04 90.2528 439.221 90.9035 439.584C91.5542 439.947 92.0608 440.459 92.4235 441.12C92.7862 441.771 92.9675 442.523 92.9675 443.376ZM91.0635 442.8C91.0528 442.128 90.8128 441.589 90.3435 441.184C89.8742 440.779 89.2928 440.576 88.5995 440.576C87.9702 440.576 87.4315 440.779 86.9835 441.184C86.5355 441.579 86.2688 442.117 86.1835 442.8H91.0635ZM96.5865 440.464C96.8532 440.016 97.2052 439.669 97.6425 439.424C98.0905 439.168 98.6185 439.04 99.2265 439.04V440.928H98.7625C98.0478 440.928 97.5038 441.109 97.1305 441.472C96.7678 441.835 96.5865 442.464 96.5865 443.36V448H94.7625V439.184H96.5865V440.464ZM102.727 440.48C103.036 440.075 103.458 439.733 103.991 439.456C104.524 439.179 105.127 439.04 105.799 439.04C106.567 439.04 107.266 439.232 107.895 439.616C108.535 439.989 109.036 440.517 109.399 441.2C109.762 441.883 109.943 442.667 109.943 443.552C109.943 444.437 109.762 445.232 109.399 445.936C109.036 446.629 108.535 447.173 107.895 447.568C107.266 447.952 106.567 448.144 105.799 448.144C105.127 448.144 104.53 448.011 104.007 447.744C103.484 447.467 103.058 447.125 102.727 446.72V452.192H100.903V439.184H102.727V440.48ZM108.087 443.552C108.087 442.944 107.959 442.421 107.703 441.984C107.458 441.536 107.127 441.2 106.711 440.976C106.306 440.741 105.868 440.624 105.399 440.624C104.94 440.624 104.503 440.741 104.087 440.976C103.682 441.211 103.351 441.552 103.095 442C102.85 442.448 102.727 442.976 102.727 443.584C102.727 444.192 102.85 444.725 103.095 445.184C103.351 445.632 103.682 445.973 104.087 446.208C104.503 446.443 104.94 446.56 105.399 446.56C105.868 446.56 106.306 446.443 106.711 446.208C107.127 445.963 107.458 445.611 107.703 445.152C107.959 444.693 108.087 444.16 108.087 443.552ZM113.571 440.464C113.838 440.016 114.19 439.669 114.627 439.424C115.075 439.168 115.603 439.04 116.211 439.04V440.928H115.747C115.032 440.928 114.488 441.109 114.115 441.472C113.752 441.835 113.571 442.464 113.571 443.36V448H111.747V439.184H113.571V440.464ZM118.816 438.016C118.485 438.016 118.208 437.904 117.984 437.68C117.76 437.456 117.648 437.179 117.648 436.848C117.648 436.517 117.76 436.24 117.984 436.016C118.208 435.792 118.485 435.68 118.816 435.68C119.136 435.68 119.408 435.792 119.632 436.016C119.856 436.24 119.968 436.517 119.968 436.848C119.968 437.179 119.856 437.456 119.632 437.68C119.408 437.904 119.136 438.016 118.816 438.016ZM119.712 439.184V448H117.888V439.184H119.712ZM126.554 439.04C127.248 439.04 127.866 439.184 128.41 439.472C128.965 439.76 129.397 440.187 129.706 440.752C130.016 441.317 130.17 442 130.17 442.8V448H128.362V443.072C128.362 442.283 128.165 441.68 127.77 441.264C127.376 440.837 126.837 440.624 126.154 440.624C125.472 440.624 124.928 440.837 124.522 441.264C124.128 441.68 123.93 442.283 123.93 443.072V448H122.106V439.184H123.93V440.192C124.229 439.829 124.608 439.547 125.066 439.344C125.536 439.141 126.032 439.04 126.554 439.04ZM134.625 440.672V445.552C134.625 445.883 134.7 446.123 134.849 446.272C135.009 446.411 135.276 446.48 135.649 446.48H136.769V448H135.329C134.508 448 133.878 447.808 133.441 447.424C133.004 447.04 132.785 446.416 132.785 445.552V440.672H131.745V439.184H132.785V436.992H134.625V439.184H136.769V440.672H134.625Z" fill="black" fill-opacity="0.85"/>
<path d="M58.976 494.192C58.976 494.757 58.8427 495.291 58.576 495.792C58.3093 496.293 57.8827 496.704 57.296 497.024C56.7093 497.333 55.9573 497.488 55.04 497.488H53.024V502H51.2V490.88H55.04C55.8933 490.88 56.6133 491.029 57.2 491.328C57.7973 491.616 58.24 492.011 58.528 492.512C58.8267 493.013 58.976 493.573 58.976 494.192ZM55.04 496C55.7333 496 56.2507 495.845 56.592 495.536C56.9333 495.216 57.104 494.768 57.104 494.192C57.104 492.976 56.416 492.368 55.04 492.368H53.024V496H55.04ZM62.5396 490.88V502H60.7156V490.88H62.5396ZM74.0704 502H72.2464L66.7584 493.696V502H64.9344V490.864H66.7584L72.2464 499.152V490.864H74.0704V502Z" fill="black" fill-opacity="0.85"/>
<path d="M62.912 517.88V529H61.088V521.384L57.696 529H56.432L53.024 521.384V529H51.2V517.88H53.168L57.072 526.6L60.96 517.88H62.912ZM69.1334 529.144C68.3014 529.144 67.5494 528.957 66.8774 528.584C66.2054 528.2 65.6774 527.667 65.2934 526.984C64.9094 526.291 64.7174 525.491 64.7174 524.584C64.7174 523.688 64.9147 522.893 65.3094 522.2C65.704 521.507 66.2427 520.973 66.9254 520.6C67.608 520.227 68.3707 520.04 69.2134 520.04C70.056 520.04 70.8187 520.227 71.5014 520.6C72.184 520.973 72.7227 521.507 73.1174 522.2C73.512 522.893 73.7094 523.688 73.7094 524.584C73.7094 525.48 73.5067 526.275 73.1014 526.968C72.696 527.661 72.1414 528.2 71.4374 528.584C70.744 528.957 69.976 529.144 69.1334 529.144ZM69.1334 527.56C69.6027 527.56 70.04 527.448 70.4454 527.224C70.8614 527 71.1974 526.664 71.4534 526.216C71.7094 525.768 71.8374 525.224 71.8374 524.584C71.8374 523.944 71.7147 523.405 71.4694 522.968C71.224 522.52 70.8987 522.184 70.4934 521.96C70.088 521.736 69.6507 521.624 69.1814 521.624C68.712 521.624 68.2747 521.736 67.8694 521.96C67.4747 522.184 67.16 522.52 66.9254 522.968C66.6907 523.405 66.5734 523.944 66.5734 524.584C66.5734 525.533 66.8134 526.269 67.2934 526.792C67.784 527.304 68.3974 527.56 69.1334 527.56ZM77.3365 521.496C77.6458 521.069 78.0672 520.723 78.6005 520.456C79.1445 520.179 79.7472 520.04 80.4085 520.04C81.1872 520.04 81.8912 520.227 82.5205 520.6C83.1498 520.973 83.6458 521.507 84.0085 522.2C84.3712 522.883 84.5525 523.667 84.5525 524.552C84.5525 525.437 84.3712 526.232 84.0085 526.936C83.6458 527.629 83.1445 528.173 82.5045 528.568C81.8752 528.952 81.1765 529.144 80.4085 529.144C79.7258 529.144 79.1178 529.011 78.5845 528.744C78.0618 528.477 77.6458 528.136 77.3365 527.72V529H75.5125V517.16H77.3365V521.496ZM82.6965 524.552C82.6965 523.944 82.5685 523.421 82.3125 522.984C82.0672 522.536 81.7365 522.2 81.3205 521.976C80.9152 521.741 80.4778 521.624 80.0085 521.624C79.5498 521.624 79.1125 521.741 78.6965 521.976C78.2912 522.211 77.9605 522.552 77.7045 523C77.4592 523.448 77.3365 523.976 77.3365 524.584C77.3365 525.192 77.4592 525.725 77.7045 526.184C77.9605 526.632 78.2912 526.973 78.6965 527.208C79.1125 527.443 79.5498 527.56 80.0085 527.56C80.4778 527.56 80.9152 527.443 81.3205 527.208C81.7365 526.963 82.0672 526.611 82.3125 526.152C82.5685 525.693 82.6965 525.16 82.6965 524.552ZM87.2843 519.016C86.9536 519.016 86.6763 518.904 86.4523 518.68C86.2283 518.456 86.1163 518.179 86.1163 517.848C86.1163 517.517 86.2283 517.24 86.4523 517.016C86.6763 516.792 86.9536 516.68 87.2843 516.68C87.6043 516.68 87.8763 516.792 88.1003 517.016C88.3243 517.24 88.4363 517.517 88.4363 517.848C88.4363 518.179 88.3243 518.456 88.1003 518.68C87.8763 518.904 87.6043 519.016 87.2843 519.016ZM88.1803 520.184V529H86.3563V520.184H88.1803ZM92.399 517.16V529H90.575V517.16H92.399ZM102.874 524.376C102.874 524.707 102.852 525.005 102.81 525.272H96.0738C96.1271 525.976 96.3884 526.541 96.8578 526.968C97.3271 527.395 97.9031 527.608 98.5858 527.608C99.5671 527.608 100.26 527.197 100.666 526.376H102.634C102.367 527.187 101.882 527.853 101.178 528.376C100.484 528.888 99.6204 529.144 98.5858 529.144C97.7431 529.144 96.9858 528.957 96.3138 528.584C95.6524 528.2 95.1298 527.667 94.7458 526.984C94.3724 526.291 94.1858 525.491 94.1858 524.584C94.1858 523.677 94.3671 522.883 94.7298 522.2C95.1031 521.507 95.6204 520.973 96.2818 520.6C96.9538 520.227 97.7218 520.04 98.5858 520.04C99.4178 520.04 100.159 520.221 100.81 520.584C101.46 520.947 101.967 521.459 102.33 522.12C102.692 522.771 102.874 523.523 102.874 524.376ZM100.97 523.8C100.959 523.128 100.719 522.589 100.25 522.184C99.7804 521.779 99.1991 521.576 98.5058 521.576C97.8764 521.576 97.3378 521.779 96.8898 522.184C96.4418 522.579 96.1751 523.117 96.0898 523.8H100.97ZM115.529 526.728H110.873L110.073 529H108.169L112.153 517.864H114.265L118.249 529H116.329L115.529 526.728ZM115.017 525.24L113.209 520.072L111.385 525.24H115.017ZM121.805 521.48C122.115 521.075 122.536 520.733 123.069 520.456C123.603 520.179 124.205 520.04 124.877 520.04C125.645 520.04 126.344 520.232 126.973 520.616C127.613 520.989 128.115 521.517 128.477 522.2C128.84 522.883 129.021 523.667 129.021 524.552C129.021 525.437 128.84 526.232 128.477 526.936C128.115 527.629 127.613 528.173 126.973 528.568C126.344 528.952 125.645 529.144 124.877 529.144C124.205 529.144 123.608 529.011 123.085 528.744C122.563 528.467 122.136 528.125 121.805 527.72V533.192H119.981V520.184H121.805V521.48ZM127.165 524.552C127.165 523.944 127.037 523.421 126.781 522.984C126.536 522.536 126.205 522.2 125.789 521.976C125.384 521.741 124.947 521.624 124.477 521.624C124.019 521.624 123.581 521.741 123.165 521.976C122.76 522.211 122.429 522.552 122.173 523C121.928 523.448 121.805 523.976 121.805 524.584C121.805 525.192 121.928 525.725 122.173 526.184C122.429 526.632 122.76 526.973 123.165 527.208C123.581 527.443 124.019 527.56 124.477 527.56C124.947 527.56 125.384 527.443 125.789 527.208C126.205 526.963 126.536 526.611 126.781 526.152C127.037 525.693 127.165 525.16 127.165 524.552ZM132.649 521.48C132.958 521.075 133.38 520.733 133.913 520.456C134.446 520.179 135.049 520.04 135.721 520.04C136.489 520.04 137.188 520.232 137.817 520.616C138.457 520.989 138.958 521.517 139.321 522.2C139.684 522.883 139.865 523.667 139.865 524.552C139.865 525.437 139.684 526.232 139.321 526.936C138.958 527.629 138.457 528.173 137.817 528.568C137.188 528.952 136.489 529.144 135.721 529.144C135.049 529.144 134.452 529.011 133.929 528.744C133.406 528.467 132.98 528.125 132.649 527.72V533.192H130.825V520.184H132.649V521.48ZM138.009 524.552C138.009 523.944 137.881 523.421 137.625 522.984C137.38 522.536 137.049 522.2 136.633 521.976C136.228 521.741 135.79 521.624 135.321 521.624C134.862 521.624 134.425 521.741 134.009 521.976C133.604 522.211 133.273 522.552 133.017 523C132.772 523.448 132.649 523.976 132.649 524.584C132.649 525.192 132.772 525.725 133.017 526.184C133.273 526.632 133.604 526.973 134.009 527.208C134.425 527.443 134.862 527.56 135.321 527.56C135.79 527.56 136.228 527.443 136.633 527.208C137.049 526.963 137.38 526.611 137.625 526.152C137.881 525.693 138.009 525.16 138.009 524.552Z" fill="black" fill-opacity="0.85"/>
<path d="M56.976 473L54.416 468.552H53.024V473H51.2V461.88H55.04C55.8933 461.88 56.6133 462.029 57.2 462.328C57.7973 462.627 58.24 463.027 58.528 463.528C58.8267 464.029 58.976 464.589 58.976 465.208C58.976 465.933 58.7627 466.595 58.336 467.192C57.92 467.779 57.2747 468.179 56.4 468.392L59.152 473H56.976ZM53.024 467.096H55.04C55.7227 467.096 56.2347 466.925 56.576 466.584C56.928 466.243 57.104 465.784 57.104 465.208C57.104 464.632 56.9333 464.184 56.592 463.864C56.2507 463.533 55.7333 463.368 55.04 463.368H53.024V467.096ZM67.8534 461.88V463.368H63.1334V466.648H66.8134V468.136H63.1334V473H61.3094V461.88H67.8534ZM71.3678 461.88V473H69.5438V461.88H71.3678ZM77.3945 461.88C78.5785 461.88 79.6132 462.109 80.4985 462.568C81.3945 463.016 82.0825 463.667 82.5625 464.52C83.0532 465.363 83.2985 466.349 83.2985 467.48C83.2985 468.611 83.0532 469.592 82.5625 470.424C82.0825 471.256 81.3945 471.896 80.4985 472.344C79.6132 472.781 78.5785 473 77.3945 473H73.7625V461.88H77.3945ZM77.3945 471.512C78.6958 471.512 79.6932 471.16 80.3865 470.456C81.0798 469.752 81.4265 468.76 81.4265 467.48C81.4265 466.189 81.0798 465.181 80.3865 464.456C79.6932 463.731 78.6958 463.368 77.3945 463.368H75.5865V471.512H77.3945ZM88.6545 467.416C88.6545 466.328 88.9052 465.352 89.4065 464.488C89.9185 463.624 90.6065 462.952 91.4705 462.472C92.3452 461.981 93.2998 461.736 94.3345 461.736C95.5185 461.736 96.5692 462.029 97.4865 462.616C98.4145 463.192 99.0865 464.013 99.5025 465.08H97.3105C97.0225 464.493 96.6225 464.056 96.1105 463.768C95.5985 463.48 95.0065 463.336 94.3345 463.336C93.5985 463.336 92.9425 463.501 92.3665 463.832C91.7905 464.163 91.3372 464.637 91.0065 465.256C90.6865 465.875 90.5265 466.595 90.5265 467.416C90.5265 468.237 90.6865 468.957 91.0065 469.576C91.3372 470.195 91.7905 470.675 92.3665 471.016C92.9425 471.347 93.5985 471.512 94.3345 471.512C95.0065 471.512 95.5985 471.368 96.1105 471.08C96.6225 470.792 97.0225 470.355 97.3105 469.768H99.5025C99.0865 470.835 98.4145 471.656 97.4865 472.232C96.5692 472.808 95.5185 473.096 94.3345 473.096C93.2892 473.096 92.3345 472.856 91.4705 472.376C90.6065 471.885 89.9185 471.208 89.4065 470.344C88.9052 469.48 88.6545 468.504 88.6545 467.416ZM101.03 468.552C101.03 467.667 101.211 466.883 101.574 466.2C101.947 465.517 102.448 464.989 103.078 464.616C103.718 464.232 104.422 464.04 105.19 464.04C105.883 464.04 106.486 464.179 106.998 464.456C107.52 464.723 107.936 465.059 108.246 465.464V464.184H110.086V473H108.246V471.688C107.936 472.104 107.515 472.451 106.982 472.728C106.448 473.005 105.84 473.144 105.158 473.144C104.4 473.144 103.707 472.952 103.078 472.568C102.448 472.173 101.947 471.629 101.574 470.936C101.211 470.232 101.03 469.437 101.03 468.552ZM108.246 468.584C108.246 467.976 108.118 467.448 107.862 467C107.616 466.552 107.291 466.211 106.886 465.976C106.48 465.741 106.043 465.624 105.574 465.624C105.104 465.624 104.667 465.741 104.262 465.976C103.856 466.2 103.526 466.536 103.27 466.984C103.024 467.421 102.902 467.944 102.902 468.552C102.902 469.16 103.024 469.693 103.27 470.152C103.526 470.611 103.856 470.963 104.262 471.208C104.678 471.443 105.115 471.56 105.574 471.56C106.043 471.56 106.48 471.443 106.886 471.208C107.291 470.973 107.616 470.632 107.862 470.184C108.118 469.725 108.246 469.192 108.246 468.584ZM114.305 465.464C114.572 465.016 114.924 464.669 115.361 464.424C115.809 464.168 116.337 464.04 116.945 464.04V465.928H116.481C115.767 465.928 115.223 466.109 114.849 466.472C114.487 466.835 114.305 467.464 114.305 468.36V473H112.481V464.184H114.305V465.464ZM118.014 468.552C118.014 467.667 118.195 466.883 118.558 466.2C118.931 465.517 119.433 464.989 120.062 464.616C120.702 464.232 121.411 464.04 122.19 464.04C122.766 464.04 123.331 464.168 123.886 464.424C124.451 464.669 124.899 465 125.23 465.416V461.16H127.07V473H125.23V471.672C124.931 472.099 124.515 472.451 123.982 472.728C123.459 473.005 122.857 473.144 122.174 473.144C121.406 473.144 120.702 472.952 120.062 472.568C119.433 472.173 118.931 471.629 118.558 470.936C118.195 470.232 118.014 469.437 118.014 468.552ZM125.23 468.584C125.23 467.976 125.102 467.448 124.846 467C124.601 466.552 124.275 466.211 123.87 465.976C123.465 465.741 123.027 465.624 122.558 465.624C122.089 465.624 121.651 465.741 121.246 465.976C120.841 466.2 120.51 466.536 120.254 466.984C120.009 467.421 119.886 467.944 119.886 468.552C119.886 469.16 120.009 469.693 120.254 470.152C120.51 470.611 120.841 470.963 121.246 471.208C121.662 471.443 122.099 471.56 122.558 471.56C123.027 471.56 123.465 471.443 123.87 471.208C124.275 470.973 124.601 470.632 124.846 470.184C125.102 469.725 125.23 469.192 125.23 468.584Z" fill="black" fill-opacity="0.85"/>
<rect x="30" y="188" width="30" height="180" fill="#F5665A"/>
<rect x="80" y="151" width="30" height="217" fill="#6BC0C5"/>
<rect x="130" y="206" width="30" height="162" fill="#FFD234"/>
<rect x="174" y="123" width="30" height="245" fill="#187DDB"/>
<rect x="230" y="156" width="30" height="212" fill="#F5665A"/>
<rect x="280" y="172" width="30" height="196" fill="#6BC0C5"/>
<rect x="330" y="188" width="30" height="180" fill="#FFD234"/>
<rect x="380" y="112" width="30" height="256" fill="#187DDB"/>
<path d="M43.7582 381.8V380.252H46.6502V389H44.9222V381.8H43.7582ZM39.1359 405.404H35.7999L35.2479 407H33.4839L36.4959 398.612H38.4519L41.4639 407H39.6879L39.1359 405.404ZM38.6799 404.06L37.4679 400.556L36.2559 404.06H38.6799ZM48.8657 400.352V407H47.1737V406.16C46.9577 406.448 46.6737 406.676 46.3217 406.844C45.9777 407.004 45.6017 407.084 45.1937 407.084C44.6737 407.084 44.2137 406.976 43.8137 406.76C43.4137 406.536 43.0977 406.212 42.8657 405.788C42.6417 405.356 42.5297 404.844 42.5297 404.252V400.352H44.2097V404.012C44.2097 404.54 44.3417 404.948 44.6057 405.236C44.8697 405.516 45.2297 405.656 45.6857 405.656C46.1497 405.656 46.5137 405.516 46.7777 405.236C47.0417 404.948 47.1737 404.54 47.1737 404.012V400.352H48.8657ZM53.1273 400.244C53.6233 400.244 54.0593 400.344 54.4353 400.544C54.8113 400.736 55.1073 400.988 55.3233 401.3V400.352H57.0153V407.048C57.0153 407.664 56.8913 408.212 56.6433 408.692C56.3953 409.18 56.0233 409.564 55.5273 409.844C55.0313 410.132 54.4313 410.276 53.7273 410.276C52.7833 410.276 52.0073 410.056 51.3993 409.616C50.7993 409.176 50.4593 408.576 50.3793 407.816H52.0473C52.1353 408.12 52.3233 408.36 52.6113 408.536C52.9073 408.72 53.2633 408.812 53.6793 408.812C54.1673 408.812 54.5633 408.664 54.8673 408.368C55.1713 408.08 55.3233 407.64 55.3233 407.048V406.016C55.1073 406.328 54.8073 406.588 54.4233 406.796C54.0473 407.004 53.6153 407.108 53.1273 407.108C52.5673 407.108 52.0553 406.964 51.5913 406.676C51.1273 406.388 50.7593 405.984 50.4873 405.464C50.2233 404.936 50.0913 404.332 50.0913 403.652C50.0913 402.98 50.2233 402.384 50.4873 401.864C50.7593 401.344 51.1233 400.944 51.5793 400.664C52.0433 400.384 52.5593 400.244 53.1273 400.244ZM55.3233 403.676C55.3233 403.268 55.2433 402.92 55.0833 402.632C54.9233 402.336 54.7073 402.112 54.4353 401.96C54.1633 401.8 53.8713 401.72 53.5593 401.72C53.2473 401.72 52.9593 401.796 52.6953 401.948C52.4313 402.1 52.2153 402.324 52.0473 402.62C51.8873 402.908 51.8073 403.252 51.8073 403.652C51.8073 404.052 51.8873 404.404 52.0473 404.708C52.2153 405.004 52.4313 405.232 52.6953 405.392C52.9673 405.552 53.2553 405.632 53.5593 405.632C53.8713 405.632 54.1633 405.556 54.4353 405.404C54.7073 405.244 54.9233 405.02 55.0833 404.732C55.2433 404.436 55.3233 404.084 55.3233 403.676Z" fill="black" fill-opacity="0.5"/>
<path d="M93.7582 381.8V380.252H96.6502V389H94.9222V381.8H93.7582ZM89.1359 405.404H85.7999L85.2479 407H83.4839L86.4959 398.612H88.4519L91.4639 407H89.6879L89.1359 405.404ZM88.6799 404.06L87.4679 400.556L86.2559 404.06H88.6799ZM98.8657 400.352V407H97.1737V406.16C96.9577 406.448 96.6737 406.676 96.3217 406.844C95.9777 407.004 95.6017 407.084 95.1937 407.084C94.6737 407.084 94.2137 406.976 93.8137 406.76C93.4137 406.536 93.0977 406.212 92.8657 405.788C92.6417 405.356 92.5297 404.844 92.5297 404.252V400.352H94.2097V404.012C94.2097 404.54 94.3417 404.948 94.6057 405.236C94.8697 405.516 95.2297 405.656 95.6857 405.656C96.1497 405.656 96.5137 405.516 96.7777 405.236C97.0417 404.948 97.1737 404.54 97.1737 404.012V400.352H98.8657ZM103.127 400.244C103.623 400.244 104.059 400.344 104.435 400.544C104.811 400.736 105.107 400.988 105.323 401.3V400.352H107.015V407.048C107.015 407.664 106.891 408.212 106.643 408.692C106.395 409.18 106.023 409.564 105.527 409.844C105.031 410.132 104.431 410.276 103.727 410.276C102.783 410.276 102.007 410.056 101.399 409.616C100.799 409.176 100.459 408.576 100.379 407.816H102.047C102.135 408.12 102.323 408.36 102.611 408.536C102.907 408.72 103.263 408.812 103.679 408.812C104.167 408.812 104.563 408.664 104.867 408.368C105.171 408.08 105.323 407.64 105.323 407.048V406.016C105.107 406.328 104.807 406.588 104.423 406.796C104.047 407.004 103.615 407.108 103.127 407.108C102.567 407.108 102.055 406.964 101.591 406.676C101.127 406.388 100.759 405.984 100.487 405.464C100.223 404.936 100.091 404.332 100.091 403.652C100.091 402.98 100.223 402.384 100.487 401.864C100.759 401.344 101.123 400.944 101.579 400.664C102.043 400.384 102.559 400.244 103.127 400.244ZM105.323 403.676C105.323 403.268 105.243 402.92 105.083 402.632C104.923 402.336 104.707 402.112 104.435 401.96C104.163 401.8 103.871 401.72 103.559 401.72C103.247 401.72 102.959 401.796 102.695 401.948C102.431 402.1 102.215 402.324 102.047 402.62C101.887 402.908 101.807 403.252 101.807 403.652C101.807 404.052 101.887 404.404 102.047 404.708C102.215 405.004 102.431 405.232 102.695 405.392C102.967 405.552 103.255 405.632 103.559 405.632C103.871 405.632 104.163 405.556 104.435 405.404C104.707 405.244 104.923 405.02 105.083 404.732C105.243 404.436 105.323 404.084 105.323 403.676Z" fill="black" fill-opacity="0.5"/>
<path d="M143.758 381.8V380.252H146.65V389H144.922V381.8H143.758ZM139.136 405.404H135.8L135.248 407H133.484L136.496 398.612H138.452L141.464 407H139.688L139.136 405.404ZM138.68 404.06L137.468 400.556L136.256 404.06H138.68ZM148.866 400.352V407H147.174V406.16C146.958 406.448 146.674 406.676 146.322 406.844C145.978 407.004 145.602 407.084 145.194 407.084C144.674 407.084 144.214 406.976 143.814 406.76C143.414 406.536 143.098 406.212 142.866 405.788C142.642 405.356 142.53 404.844 142.53 404.252V400.352H144.21V404.012C144.21 404.54 144.342 404.948 144.606 405.236C144.87 405.516 145.23 405.656 145.686 405.656C146.15 405.656 146.514 405.516 146.778 405.236C147.042 404.948 147.174 404.54 147.174 404.012V400.352H148.866ZM153.127 400.244C153.623 400.244 154.059 400.344 154.435 400.544C154.811 400.736 155.107 400.988 155.323 401.3V400.352H157.015V407.048C157.015 407.664 156.891 408.212 156.643 408.692C156.395 409.18 156.023 409.564 155.527 409.844C155.031 410.132 154.431 410.276 153.727 410.276C152.783 410.276 152.007 410.056 151.399 409.616C150.799 409.176 150.459 408.576 150.379 407.816H152.047C152.135 408.12 152.323 408.36 152.611 408.536C152.907 408.72 153.263 408.812 153.679 408.812C154.167 408.812 154.563 408.664 154.867 408.368C155.171 408.08 155.323 407.64 155.323 407.048V406.016C155.107 406.328 154.807 406.588 154.423 406.796C154.047 407.004 153.615 407.108 153.127 407.108C152.567 407.108 152.055 406.964 151.591 406.676C151.127 406.388 150.759 405.984 150.487 405.464C150.223 404.936 150.091 404.332 150.091 403.652C150.091 402.98 150.223 402.384 150.487 401.864C150.759 401.344 151.123 400.944 151.579 400.664C152.043 400.384 152.559 400.244 153.127 400.244ZM155.323 403.676C155.323 403.268 155.243 402.92 155.083 402.632C154.923 402.336 154.707 402.112 154.435 401.96C154.163 401.8 153.871 401.72 153.559 401.72C153.247 401.72 152.959 401.796 152.695 401.948C152.431 402.1 152.215 402.324 152.047 402.62C151.887 402.908 151.807 403.252 151.807 403.652C151.807 404.052 151.887 404.404 152.047 404.708C152.215 405.004 152.431 405.232 152.695 405.392C152.967 405.552 153.255 405.632 153.559 405.632C153.871 405.632 154.163 405.556 154.435 405.404C154.707 405.244 154.923 405.02 155.083 404.732C155.243 404.436 155.323 404.084 155.323 403.676Z" fill="black" fill-opacity="0.5"/>
<path d="M193.758 381.8V380.252H196.65V389H194.922V381.8H193.758ZM189.136 405.404H185.8L185.248 407H183.484L186.496 398.612H188.452L191.464 407H189.688L189.136 405.404ZM188.68 404.06L187.468 400.556L186.256 404.06H188.68ZM198.866 400.352V407H197.174V406.16C196.958 406.448 196.674 406.676 196.322 406.844C195.978 407.004 195.602 407.084 195.194 407.084C194.674 407.084 194.214 406.976 193.814 406.76C193.414 406.536 193.098 406.212 192.866 405.788C192.642 405.356 192.53 404.844 192.53 404.252V400.352H194.21V404.012C194.21 404.54 194.342 404.948 194.606 405.236C194.87 405.516 195.23 405.656 195.686 405.656C196.15 405.656 196.514 405.516 196.778 405.236C197.042 404.948 197.174 404.54 197.174 404.012V400.352H198.866ZM203.127 400.244C203.623 400.244 204.059 400.344 204.435 400.544C204.811 400.736 205.107 400.988 205.323 401.3V400.352H207.015V407.048C207.015 407.664 206.891 408.212 206.643 408.692C206.395 409.18 206.023 409.564 205.527 409.844C205.031 410.132 204.431 410.276 203.727 410.276C202.783 410.276 202.007 410.056 201.399 409.616C200.799 409.176 200.459 408.576 200.379 407.816H202.047C202.135 408.12 202.323 408.36 202.611 408.536C202.907 408.72 203.263 408.812 203.679 408.812C204.167 408.812 204.563 408.664 204.867 408.368C205.171 408.08 205.323 407.64 205.323 407.048V406.016C205.107 406.328 204.807 406.588 204.423 406.796C204.047 407.004 203.615 407.108 203.127 407.108C202.567 407.108 202.055 406.964 201.591 406.676C201.127 406.388 200.759 405.984 200.487 405.464C200.223 404.936 200.091 404.332 200.091 403.652C200.091 402.98 200.223 402.384 200.487 401.864C200.759 401.344 201.123 400.944 201.579 400.664C202.043 400.384 202.559 400.244 203.127 400.244ZM205.323 403.676C205.323 403.268 205.243 402.92 205.083 402.632C204.923 402.336 204.707 402.112 204.435 401.96C204.163 401.8 203.871 401.72 203.559 401.72C203.247 401.72 202.959 401.796 202.695 401.948C202.431 402.1 202.215 402.324 202.047 402.62C201.887 402.908 201.807 403.252 201.807 403.652C201.807 404.052 201.887 404.404 202.047 404.708C202.215 405.004 202.431 405.232 202.695 405.392C202.967 405.552 203.255 405.632 203.559 405.632C203.871 405.632 204.163 405.556 204.435 405.404C204.707 405.244 204.923 405.02 205.083 404.732C205.243 404.436 205.323 404.084 205.323 403.676Z" fill="black" fill-opacity="0.5"/>
<path d="M240.313 381.8V380.252H243.205V389H241.477V381.8H240.313ZM245.393 387.104C246.161 386.464 246.773 385.932 247.229 385.508C247.685 385.076 248.065 384.628 248.369 384.164C248.673 383.7 248.825 383.244 248.825 382.796C248.825 382.388 248.729 382.068 248.537 381.836C248.345 381.604 248.049 381.488 247.649 381.488C247.249 381.488 246.941 381.624 246.725 381.896C246.509 382.16 246.397 382.524 246.389 382.988H244.757C244.789 382.028 245.073 381.3 245.609 380.804C246.153 380.308 246.841 380.06 247.673 380.06C248.585 380.06 249.285 380.304 249.773 380.792C250.261 381.272 250.505 381.908 250.505 382.7C250.505 383.324 250.337 383.92 250.001 384.488C249.665 385.056 249.281 385.552 248.849 385.976C248.417 386.392 247.853 386.896 247.157 387.488H250.697V388.88H244.769V387.632L245.393 387.104ZM239.136 405.404H235.8L235.248 407H233.484L236.496 398.612H238.452L241.464 407H239.688L239.136 405.404ZM238.68 404.06L237.468 400.556L236.256 404.06H238.68ZM248.866 400.352V407H247.174V406.16C246.958 406.448 246.674 406.676 246.322 406.844C245.978 407.004 245.602 407.084 245.194 407.084C244.674 407.084 244.214 406.976 243.814 406.76C243.414 406.536 243.098 406.212 242.866 405.788C242.642 405.356 242.53 404.844 242.53 404.252V400.352H244.21V404.012C244.21 404.54 244.342 404.948 244.606 405.236C244.87 405.516 245.23 405.656 245.686 405.656C246.15 405.656 246.514 405.516 246.778 405.236C247.042 404.948 247.174 404.54 247.174 404.012V400.352H248.866ZM253.127 400.244C253.623 400.244 254.059 400.344 254.435 400.544C254.811 400.736 255.107 400.988 255.323 401.3V400.352H257.015V407.048C257.015 407.664 256.891 408.212 256.643 408.692C256.395 409.18 256.023 409.564 255.527 409.844C255.031 410.132 254.431 410.276 253.727 410.276C252.783 410.276 252.007 410.056 251.399 409.616C250.799 409.176 250.459 408.576 250.379 407.816H252.047C252.135 408.12 252.323 408.36 252.611 408.536C252.907 408.72 253.263 408.812 253.679 408.812C254.167 408.812 254.563 408.664 254.867 408.368C255.171 408.08 255.323 407.64 255.323 407.048V406.016C255.107 406.328 254.807 406.588 254.423 406.796C254.047 407.004 253.615 407.108 253.127 407.108C252.567 407.108 252.055 406.964 251.591 406.676C251.127 406.388 250.759 405.984 250.487 405.464C250.223 404.936 250.091 404.332 250.091 403.652C250.091 402.98 250.223 402.384 250.487 401.864C250.759 401.344 251.123 400.944 251.579 400.664C252.043 400.384 252.559 400.244 253.127 400.244ZM255.323 403.676C255.323 403.268 255.243 402.92 255.083 402.632C254.923 402.336 254.707 402.112 254.435 401.96C254.163 401.8 253.871 401.72 253.559 401.72C253.247 401.72 252.959 401.796 252.695 401.948C252.431 402.1 252.215 402.324 252.047 402.62C251.887 402.908 251.807 403.252 251.807 403.652C251.807 404.052 251.887 404.404 252.047 404.708C252.215 405.004 252.431 405.232 252.695 405.392C252.967 405.552 253.255 405.632 253.559 405.632C253.871 405.632 254.163 405.556 254.435 405.404C254.707 405.244 254.923 405.02 255.083 404.732C255.243 404.436 255.323 404.084 255.323 403.676Z" fill="black" fill-opacity="0.5"/>
<path d="M290.313 381.8V380.252H293.205V389H291.477V381.8H290.313ZM295.393 387.104C296.161 386.464 296.773 385.932 297.229 385.508C297.685 385.076 298.065 384.628 298.369 384.164C298.673 383.7 298.825 383.244 298.825 382.796C298.825 382.388 298.729 382.068 298.537 381.836C298.345 381.604 298.049 381.488 297.649 381.488C297.249 381.488 296.941 381.624 296.725 381.896C296.509 382.16 296.397 382.524 296.389 382.988H294.757C294.789 382.028 295.073 381.3 295.609 380.804C296.153 380.308 296.841 380.06 297.673 380.06C298.585 380.06 299.285 380.304 299.773 380.792C300.261 381.272 300.505 381.908 300.505 382.7C300.505 383.324 300.337 383.92 300.001 384.488C299.665 385.056 299.281 385.552 298.849 385.976C298.417 386.392 297.853 386.896 297.157 387.488H300.697V388.88H294.769V387.632L295.393 387.104ZM289.136 405.404H285.8L285.248 407H283.484L286.496 398.612H288.452L291.464 407H289.688L289.136 405.404ZM288.68 404.06L287.468 400.556L286.256 404.06H288.68ZM298.866 400.352V407H297.174V406.16C296.958 406.448 296.674 406.676 296.322 406.844C295.978 407.004 295.602 407.084 295.194 407.084C294.674 407.084 294.214 406.976 293.814 406.76C293.414 406.536 293.098 406.212 292.866 405.788C292.642 405.356 292.53 404.844 292.53 404.252V400.352H294.21V404.012C294.21 404.54 294.342 404.948 294.606 405.236C294.87 405.516 295.23 405.656 295.686 405.656C296.15 405.656 296.514 405.516 296.778 405.236C297.042 404.948 297.174 404.54 297.174 404.012V400.352H298.866ZM303.127 400.244C303.623 400.244 304.059 400.344 304.435 400.544C304.811 400.736 305.107 400.988 305.323 401.3V400.352H307.015V407.048C307.015 407.664 306.891 408.212 306.643 408.692C306.395 409.18 306.023 409.564 305.527 409.844C305.031 410.132 304.431 410.276 303.727 410.276C302.783 410.276 302.007 410.056 301.399 409.616C300.799 409.176 300.459 408.576 300.379 407.816H302.047C302.135 408.12 302.323 408.36 302.611 408.536C302.907 408.72 303.263 408.812 303.679 408.812C304.167 408.812 304.563 408.664 304.867 408.368C305.171 408.08 305.323 407.64 305.323 407.048V406.016C305.107 406.328 304.807 406.588 304.423 406.796C304.047 407.004 303.615 407.108 303.127 407.108C302.567 407.108 302.055 406.964 301.591 406.676C301.127 406.388 300.759 405.984 300.487 405.464C300.223 404.936 300.091 404.332 300.091 403.652C300.091 402.98 300.223 402.384 300.487 401.864C300.759 401.344 301.123 400.944 301.579 400.664C302.043 400.384 302.559 400.244 303.127 400.244ZM305.323 403.676C305.323 403.268 305.243 402.92 305.083 402.632C304.923 402.336 304.707 402.112 304.435 401.96C304.163 401.8 303.871 401.72 303.559 401.72C303.247 401.72 302.959 401.796 302.695 401.948C302.431 402.1 302.215 402.324 302.047 402.62C301.887 402.908 301.807 403.252 301.807 403.652C301.807 404.052 301.887 404.404 302.047 404.708C302.215 405.004 302.431 405.232 302.695 405.392C302.967 405.552 303.255 405.632 303.559 405.632C303.871 405.632 304.163 405.556 304.435 405.404C304.707 405.244 304.923 405.02 305.083 404.732C305.243 404.436 305.323 404.084 305.323 403.676Z" fill="black" fill-opacity="0.5"/>
<path d="M340.313 381.8V380.252H343.205V389H341.477V381.8H340.313ZM345.393 387.104C346.161 386.464 346.773 385.932 347.229 385.508C347.685 385.076 348.065 384.628 348.369 384.164C348.673 383.7 348.825 383.244 348.825 382.796C348.825 382.388 348.729 382.068 348.537 381.836C348.345 381.604 348.049 381.488 347.649 381.488C347.249 381.488 346.941 381.624 346.725 381.896C346.509 382.16 346.397 382.524 346.389 382.988H344.757C344.789 382.028 345.073 381.3 345.609 380.804C346.153 380.308 346.841 380.06 347.673 380.06C348.585 380.06 349.285 380.304 349.773 380.792C350.261 381.272 350.505 381.908 350.505 382.7C350.505 383.324 350.337 383.92 350.001 384.488C349.665 385.056 349.281 385.552 348.849 385.976C348.417 386.392 347.853 386.896 347.157 387.488H350.697V388.88H344.769V387.632L345.393 387.104ZM339.136 405.404H335.8L335.248 407H333.484L336.496 398.612H338.452L341.464 407H339.688L339.136 405.404ZM338.68 404.06L337.468 400.556L336.256 404.06H338.68ZM348.866 400.352V407H347.174V406.16C346.958 406.448 346.674 406.676 346.322 406.844C345.978 407.004 345.602 407.084 345.194 407.084C344.674 407.084 344.214 406.976 343.814 406.76C343.414 406.536 343.098 406.212 342.866 405.788C342.642 405.356 342.53 404.844 342.53 404.252V400.352H344.21V404.012C344.21 404.54 344.342 404.948 344.606 405.236C344.87 405.516 345.23 405.656 345.686 405.656C346.15 405.656 346.514 405.516 346.778 405.236C347.042 404.948 347.174 404.54 347.174 404.012V400.352H348.866ZM353.127 400.244C353.623 400.244 354.059 400.344 354.435 400.544C354.811 400.736 355.107 400.988 355.323 401.3V400.352H357.015V407.048C357.015 407.664 356.891 408.212 356.643 408.692C356.395 409.18 356.023 409.564 355.527 409.844C355.031 410.132 354.431 410.276 353.727 410.276C352.783 410.276 352.007 410.056 351.399 409.616C350.799 409.176 350.459 408.576 350.379 407.816H352.047C352.135 408.12 352.323 408.36 352.611 408.536C352.907 408.72 353.263 408.812 353.679 408.812C354.167 408.812 354.563 408.664 354.867 408.368C355.171 408.08 355.323 407.64 355.323 407.048V406.016C355.107 406.328 354.807 406.588 354.423 406.796C354.047 407.004 353.615 407.108 353.127 407.108C352.567 407.108 352.055 406.964 351.591 406.676C351.127 406.388 350.759 405.984 350.487 405.464C350.223 404.936 350.091 404.332 350.091 403.652C350.091 402.98 350.223 402.384 350.487 401.864C350.759 401.344 351.123 400.944 351.579 400.664C352.043 400.384 352.559 400.244 353.127 400.244ZM355.323 403.676C355.323 403.268 355.243 402.92 355.083 402.632C354.923 402.336 354.707 402.112 354.435 401.96C354.163 401.8 353.871 401.72 353.559 401.72C353.247 401.72 352.959 401.796 352.695 401.948C352.431 402.1 352.215 402.324 352.047 402.62C351.887 402.908 351.807 403.252 351.807 403.652C351.807 404.052 351.887 404.404 352.047 404.708C352.215 405.004 352.431 405.232 352.695 405.392C352.967 405.552 353.255 405.632 353.559 405.632C353.871 405.632 354.163 405.556 354.435 405.404C354.707 405.244 354.923 405.02 355.083 404.732C355.243 404.436 355.323 404.084 355.323 403.676Z" fill="black" fill-opacity="0.5"/>
<path d="M390.313 381.8V380.252H393.205V389H391.477V381.8H390.313ZM395.393 387.104C396.161 386.464 396.773 385.932 397.229 385.508C397.685 385.076 398.065 384.628 398.369 384.164C398.673 383.7 398.825 383.244 398.825 382.796C398.825 382.388 398.729 382.068 398.537 381.836C398.345 381.604 398.049 381.488 397.649 381.488C397.249 381.488 396.941 381.624 396.725 381.896C396.509 382.16 396.397 382.524 396.389 382.988H394.757C394.789 382.028 395.073 381.3 395.609 380.804C396.153 380.308 396.841 380.06 397.673 380.06C398.585 380.06 399.285 380.304 399.773 380.792C400.261 381.272 400.505 381.908 400.505 382.7C400.505 383.324 400.337 383.92 400.001 384.488C399.665 385.056 399.281 385.552 398.849 385.976C398.417 386.392 397.853 386.896 397.157 387.488H400.697V388.88H394.769V387.632L395.393 387.104ZM389.136 405.404H385.8L385.248 407H383.484L386.496 398.612H388.452L391.464 407H389.688L389.136 405.404ZM388.68 404.06L387.468 400.556L386.256 404.06H388.68ZM398.866 400.352V407H397.174V406.16C396.958 406.448 396.674 406.676 396.322 406.844C395.978 407.004 395.602 407.084 395.194 407.084C394.674 407.084 394.214 406.976 393.814 406.76C393.414 406.536 393.098 406.212 392.866 405.788C392.642 405.356 392.53 404.844 392.53 404.252V400.352H394.21V404.012C394.21 404.54 394.342 404.948 394.606 405.236C394.87 405.516 395.23 405.656 395.686 405.656C396.15 405.656 396.514 405.516 396.778 405.236C397.042 404.948 397.174 404.54 397.174 404.012V400.352H398.866ZM403.127 400.244C403.623 400.244 404.059 400.344 404.435 400.544C404.811 400.736 405.107 400.988 405.323 401.3V400.352H407.015V407.048C407.015 407.664 406.891 408.212 406.643 408.692C406.395 409.18 406.023 409.564 405.527 409.844C405.031 410.132 404.431 410.276 403.727 410.276C402.783 410.276 402.007 410.056 401.399 409.616C400.799 409.176 400.459 408.576 400.379 407.816H402.047C402.135 408.12 402.323 408.36 402.611 408.536C402.907 408.72 403.263 408.812 403.679 408.812C404.167 408.812 404.563 408.664 404.867 408.368C405.171 408.08 405.323 407.64 405.323 407.048V406.016C405.107 406.328 404.807 406.588 404.423 406.796C404.047 407.004 403.615 407.108 403.127 407.108C402.567 407.108 402.055 406.964 401.591 406.676C401.127 406.388 400.759 405.984 400.487 405.464C400.223 404.936 400.091 404.332 400.091 403.652C400.091 402.98 400.223 402.384 400.487 401.864C400.759 401.344 401.123 400.944 401.579 400.664C402.043 400.384 402.559 400.244 403.127 400.244ZM405.323 403.676C405.323 403.268 405.243 402.92 405.083 402.632C404.923 402.336 404.707 402.112 404.435 401.96C404.163 401.8 403.871 401.72 403.559 401.72C403.247 401.72 402.959 401.796 402.695 401.948C402.431 402.1 402.215 402.324 402.047 402.62C401.887 402.908 401.807 403.252 401.807 403.652C401.807 404.052 401.887 404.404 402.047 404.708C402.215 405.004 402.431 405.232 402.695 405.392C402.967 405.552 403.255 405.632 403.559 405.632C403.871 405.632 404.163 405.556 404.435 405.404C404.707 405.244 404.923 405.02 405.083 404.732C405.243 404.436 405.323 404.084 405.323 403.676Z" fill="black" fill-opacity="0.5"/>
<circle cx="36" cy="440" r="6" fill="#F5665A"/>
<circle cx="36" cy="494" r="6" fill="#FFD234"/>
<circle cx="36" cy="521" r="6" fill="#187DDB"/>
<circle cx="36" cy="465" r="6" fill="#6BC0C5"/>
</svg>
