<svg width="30" height="30" viewBox="0 0 30 30" fill="none" xmlns="http://www.w3.org/2000/svg">
<path d="M14.999 28.567C15.5239 28.5549 16.0277 28.3575 16.4211 28.0098C16.8146 27.6621 17.0724 27.1865 17.149 26.667H12.7656C12.8444 27.2006 13.1142 27.6874 13.525 28.0369C13.9359 28.3864 14.4596 28.5748 14.999 28.567Z" fill="white"/>
<path d="M27.3724 23.442L27.0891 23.192C26.2853 22.4758 25.5817 21.6545 24.9974 20.7503C24.3592 19.5024 23.9768 18.1397 23.8724 16.742V12.6253C23.869 12.1253 23.8244 11.6264 23.7391 11.1337C22.3275 10.8435 21.0595 10.0745 20.1499 8.95681C19.2402 7.83911 18.7448 6.4414 18.7474 5.00033V4.47533C17.8773 4.04715 16.9425 3.76558 15.9807 3.64199V2.59199C15.9807 2.29694 15.8635 2.01397 15.6549 1.80534C15.4463 1.5967 15.1633 1.47949 14.8682 1.47949C14.5732 1.47949 14.2902 1.5967 14.0816 1.80534C13.8729 2.01397 13.7557 2.29694 13.7557 2.59199V3.68366C11.6022 3.98745 9.63121 5.06011 8.20675 6.7036C6.78229 8.34709 6.0005 10.4504 6.00573 12.6253V16.742C5.90136 18.1397 5.51888 19.5024 4.88073 20.7503C4.30646 21.6523 3.61422 22.4734 2.8224 23.192L2.53906 23.442V25.792H27.3724V23.442Z" fill="white"/>
<path d="M25.0026 9.16634C27.3038 9.16634 29.1693 7.30086 29.1693 4.99967C29.1693 2.69849 27.3038 0.833008 25.0026 0.833008C22.7014 0.833008 20.8359 2.69849 20.8359 4.99967C20.8359 7.30086 22.7014 9.16634 25.0026 9.16634Z" fill="#FF3D00"/>
</svg>
