<svg width="30" height="30" viewBox="0 0 30 30" fill="none" xmlns="http://www.w3.org/2000/svg">
<g clip-path="url(#clip0_785_16030)">
<path d="M6.82074 5.58773C7.11857 5.58773 7.41349 5.52906 7.68863 5.41505C7.96378 5.30105 8.21377 5.13396 8.42433 4.92331C8.63488 4.71267 8.80188 4.46261 8.91576 4.18742C9.02965 3.91222 9.08821 3.61728 9.08809 3.31945C9.08809 3.0217 9.02944 2.72687 8.91549 2.45178C8.80155 2.17669 8.63454 1.92674 8.424 1.7162C8.21345 1.50566 7.9635 1.33865 7.68842 1.2247C7.41333 1.11076 7.11849 1.05211 6.82074 1.05211C6.52299 1.05211 6.22815 1.11076 5.95307 1.2247C5.67798 1.33865 5.42803 1.50566 5.21749 1.7162C5.00695 1.92674 4.83993 2.17669 4.72599 2.45178C4.61204 2.72687 4.5534 3.0217 4.5534 3.31945C4.55352 3.92084 4.79241 4.49757 5.21757 4.9229C5.64272 5.34823 6.21936 5.58736 6.82074 5.58773ZM23.8373 5.55586C24.4482 5.55574 25.0341 5.31303 25.4661 4.88109C25.8981 4.44915 26.141 3.86334 26.1412 3.25242C26.1412 2.64157 25.8986 2.05575 25.4666 1.62381C25.0347 1.19188 24.4489 0.949219 23.838 0.949219C23.2272 0.949219 22.6413 1.19188 22.2094 1.62381C21.7775 2.05575 21.5348 2.64157 21.5348 3.25242C21.5347 3.55487 21.5941 3.85438 21.7098 4.13384C21.8255 4.4133 21.995 4.66724 22.2089 4.88114C22.4227 5.09505 22.6765 5.26473 22.956 5.3805C23.2354 5.49627 23.5349 5.55586 23.8373 5.55586ZM5.98309 18.4962C3.00184 18.4962 0.584961 20.9126 0.584961 23.8938C0.584961 26.8751 3.00184 29.292 5.98309 29.292C8.96434 29.292 11.3812 26.8751 11.3812 23.8938C11.3812 20.913 8.96434 18.4962 5.98309 18.4962ZM6.62293 27.3204V28.1829H5.33246V27.3204C3.95621 27.1629 3.07824 25.8527 3.07824 24.9963H4.45402C4.45402 25.3812 4.75074 25.8926 5.34512 26.0149V24.3977C5.0484 24.3405 4.88246 24.2937 4.56418 24.2065C3.7509 23.982 3.18793 23.2971 3.18793 22.4243C3.18793 21.5595 4.03215 20.5891 5.33293 20.4171V19.6113H6.6234V20.4171C8.00293 20.5948 8.85137 21.6138 8.85137 22.6324L7.50371 22.632C7.50277 22.1866 7.13246 21.7821 6.6234 21.7324V23.2493C6.99793 23.3318 6.99793 23.3224 7.34199 23.4162C8.62543 23.7654 8.91465 24.6054 8.91465 25.3099C8.91418 26.3918 8.04934 27.1343 6.62293 27.3209V27.3204Z" fill="#37A7AE"/>
<path d="M5.33246 23.0108C4.7559 22.9081 4.59606 22.6616 4.59606 22.3953C4.59606 22.0845 4.98699 21.785 5.33246 21.7447V23.0108ZM6.6384 26.0075V24.6406C7.20793 24.7222 7.56887 24.9673 7.56887 25.3194C7.56887 25.6306 7.23277 25.985 6.6384 26.0075ZM3.86152 9.51453H4.75543L3.7223 13.3597H9.91871L8.88559 9.51453H9.77949L10.8384 13.3597H12.832L11.5528 8.69562C11.2115 7.56781 10.0954 6.37109 8.63293 6.37109H5.00668C3.54277 6.37109 2.42715 7.56734 2.08543 8.69562L0.807617 13.3597H2.80121L3.86105 9.51453H3.86152Z" fill="#37A7AE"/>
<path d="M26.2988 6.34766C26.8422 6.34753 27.3633 6.5632 27.7477 6.94724C28.1321 7.33128 28.3483 7.85226 28.3486 8.39562L28.3454 14.6834H29.6649V17.2611L26.9949 17.2625V27.9378C26.9949 28.6841 26.3827 29.2892 25.636 29.2892C25.2778 29.2888 24.9343 29.1463 24.6811 28.8929C24.4279 28.6395 24.2856 28.296 24.2855 27.9378V17.2634H23.4244V27.9378C23.4242 28.2964 23.2815 28.6402 23.0278 28.8936C22.7741 29.147 22.4302 29.2893 22.0716 29.2892C21.7126 29.2893 21.3682 29.1472 21.1139 28.8939C20.8595 28.6406 20.7159 28.2968 20.7146 27.9378V17.2644L0.584106 17.2705V14.6834H20.7146V8.62953L16.4143 13.7211C15.5096 14.7659 13.8985 13.4609 14.8064 12.3434L19.2624 6.98984C19.5507 6.70297 19.809 6.34766 20.873 6.34766H26.2979H26.2988Z" fill="#37A7AE"/>
</g>
<defs>
<clipPath id="clip0_785_16030">
<rect width="30" height="30" fill="white"/>
</clipPath>
</defs>
</svg>
