<svg width="28" height="28" viewBox="0 0 28 28" fill="none" xmlns="http://www.w3.org/2000/svg">
<path d="M9 1.5H4C2.61929 1.5 1.5 2.61929 1.5 4V24C1.5 25.3807 2.61929 26.5 4 26.5H9C10.3807 26.5 11.5 25.3807 11.5 24V4C11.5 2.61929 10.3807 1.5 9 1.5Z" stroke="#09969F" stroke-opacity="0.6" stroke-width="2" stroke-linecap="round" stroke-linejoin="round"/>
<path d="M24 1.5H19C17.6193 1.5 16.5 2.61929 16.5 4V9C16.5 10.3807 17.6193 11.5 19 11.5H24C25.3807 11.5 26.5 10.3807 26.5 9V4C26.5 2.61929 25.3807 1.5 24 1.5Z" stroke="#09969F" stroke-opacity="0.6" stroke-width="2" stroke-linecap="round" stroke-linejoin="round"/>
<path d="M24 16.5H19C17.6193 16.5 16.5 17.6193 16.5 19V24C16.5 25.3807 17.6193 26.5 19 26.5H24C25.3807 26.5 26.5 25.3807 26.5 24V19C26.5 17.6193 25.3807 16.5 24 16.5Z" stroke="#09969F" stroke-opacity="0.6" stroke-width="2" stroke-linecap="round" stroke-linejoin="round"/>
</svg>
