<svg width="30" height="30" viewBox="0 0 30 30" fill="none" xmlns="http://www.w3.org/2000/svg">
<path d="M14.058 3.0375C16.4808 2.8465 18.9045 3.39564 21.0083 4.61225C23.1122 5.82886 24.797 7.65559 25.84 9.85073C26.8829 12.0459 27.2347 14.5059 26.8489 16.9054C26.4631 19.3049 25.3578 21.5307 23.6793 23.2882C22.0008 25.0458 19.8282 26.2523 17.449 26.748C15.0699 27.2438 12.5962 27.0055 10.3554 26.0646C8.11463 25.1238 6.21234 23.5247 4.90025 21.479C3.58816 19.4334 2.92814 17.0375 3.0075 14.6085C3.01625 14.3101 3.14317 14.0275 3.36034 13.8227C3.57751 13.6179 3.86713 13.5077 4.1655 13.5165C4.46387 13.5253 4.74654 13.6522 4.95133 13.8693C5.15612 14.0865 5.26625 14.3761 5.2575 14.6745C5.18149 16.9738 5.92095 19.2259 7.34515 21.0326C8.76934 22.8393 10.7865 24.0842 13.04 24.5472C15.2935 25.0102 17.6381 24.6614 19.6592 23.5626C21.6804 22.4637 23.2478 20.6856 24.0845 18.5426C24.9212 16.3996 24.9731 14.0298 24.2312 11.8521C23.4892 9.67453 22.0012 7.82942 20.0301 6.64307C18.059 5.45672 15.732 5.00555 13.4604 5.36934C11.1888 5.73313 9.119 6.88845 7.617 8.631L7.311 9.0045H10.1265L10.2795 9.015C10.5499 9.05084 10.7981 9.18369 10.9778 9.38885C11.1576 9.594 11.2567 9.85748 11.2567 10.1303C11.2567 10.403 11.1576 10.6665 10.9778 10.8717C10.7981 11.0768 10.5499 11.2097 10.2795 11.2455L10.1265 11.2545H4.8795L4.7265 11.2455C4.48305 11.212 4.25726 11.0998 4.08364 10.9259C3.91001 10.752 3.7981 10.526 3.765 10.2825L3.7545 10.1295V4.1295L3.765 3.978C3.7981 3.7345 3.91001 3.50854 4.08364 3.33464C4.25726 3.16074 4.48305 3.04848 4.7265 3.015L4.8795 3.006L5.0325 3.015C5.27595 3.04848 5.50174 3.16074 5.67537 3.33464C5.84899 3.50854 5.96091 3.7345 5.994 3.978L6.0045 4.1295L6.003 7.059C8.06207 4.72097 10.9518 3.27824 14.058 3.0375ZM14.625 9.0045L14.778 9.015C15.0214 9.04848 15.2472 9.16074 15.4209 9.33464C15.5945 9.50854 15.7064 9.7345 15.7395 9.978L15.75 10.1295V15L18.375 15.0015L18.528 15.012C18.7973 15.0491 19.044 15.1823 19.2226 15.3872C19.4013 15.5921 19.4997 15.8547 19.4997 16.1265C19.4997 16.3983 19.4013 16.6609 19.2226 16.8658C19.044 17.0707 18.7973 17.204 18.528 17.241L18.375 17.2515H14.625L14.472 17.241C14.2288 17.2076 14.0031 17.0956 13.8295 16.922C13.6559 16.7484 13.5439 16.5227 13.5105 16.2795L13.5 16.125V10.1295L13.5105 9.978C13.5436 9.7345 13.6555 9.50854 13.8291 9.33464C14.0028 9.16074 14.2286 9.04848 14.472 9.015L14.625 9.006V9.0045Z" fill="black" fill-opacity="0.85"/>
</svg>
