<svg width="30" height="30" viewBox="0 0 30 30" fill="none" xmlns="http://www.w3.org/2000/svg">
<path d="M16.25 12.3425C17.4283 12.0383 18.4552 11.3147 19.1382 10.3075C19.8213 9.30027 20.1135 8.07852 19.9601 6.87125C19.8068 5.66399 19.2184 4.55409 18.3053 3.7496C17.3921 2.94511 16.217 2.50127 15 2.50127C13.783 2.50127 12.6078 2.94511 11.6947 3.7496C10.7816 4.55409 10.1932 5.66399 10.0398 6.87125C9.8865 8.07852 10.1787 9.30027 10.8617 10.3075C11.5448 11.3147 12.5717 12.0383 13.75 12.3425V15H8.74999C8.08695 15 7.45106 15.2634 6.98222 15.7322C6.51338 16.2011 6.24999 16.837 6.24999 17.5V20.1575C5.07166 20.4617 4.04475 21.1853 3.36174 22.1925C2.67872 23.1997 2.3865 24.4215 2.53984 25.6288C2.69318 26.836 3.28157 27.9459 4.1947 28.7504C5.10783 29.5549 6.28302 29.9987 7.49999 29.9987C8.71696 29.9987 9.89215 29.5549 10.8053 28.7504C11.7184 27.9459 12.3068 26.836 12.4601 25.6288C12.6135 24.4215 12.3213 23.1997 11.6382 22.1925C10.9552 21.1853 9.92831 20.4617 8.74999 20.1575V17.5H21.25V20.1575C20.0717 20.4617 19.0448 21.1853 18.3617 22.1925C17.6787 23.1997 17.3865 24.4215 17.5398 25.6288C17.6932 26.836 18.2816 27.9459 19.1947 28.7504C20.1078 29.5549 21.283 29.9987 22.5 29.9987C23.717 29.9987 24.8921 29.5549 25.8053 28.7504C26.7184 27.9459 27.3068 26.836 27.4601 25.6288C27.6135 24.4215 27.3213 23.1997 26.6382 22.1925C25.9552 21.1853 24.9283 20.4617 23.75 20.1575V17.5C23.75 16.837 23.4866 16.2011 23.0178 15.7322C22.5489 15.2634 21.913 15 21.25 15H16.25V12.3425ZM15 10C14.3369 10 13.7011 9.73661 13.2322 9.26777C12.7634 8.79893 12.5 8.16304 12.5 7.5C12.5 6.83696 12.7634 6.20108 13.2322 5.73224C13.7011 5.2634 14.3369 5 15 5C15.663 5 16.2989 5.2634 16.7678 5.73224C17.2366 6.20108 17.5 6.83696 17.5 7.5C17.5 8.16304 17.2366 8.79893 16.7678 9.26777C16.2989 9.73661 15.663 10 15 10ZM22.5 27.5C21.8369 27.5 21.2011 27.2366 20.7322 26.7678C20.2634 26.2989 20 25.663 20 25C20 24.337 20.2634 23.7011 20.7322 23.2322C21.2011 22.7634 21.8369 22.5 22.5 22.5C23.163 22.5 23.7989 22.7634 24.2678 23.2322C24.7366 23.7011 25 24.337 25 25C25 25.663 24.7366 26.2989 24.2678 26.7678C23.7989 27.2366 23.163 27.5 22.5 27.5ZM9.99999 25C9.99999 25.663 9.7366 26.2989 9.26775 26.7678C8.79891 27.2366 8.16303 27.5 7.49999 27.5C6.83695 27.5 6.20106 27.2366 5.73222 26.7678C5.26338 26.2989 4.99999 25.663 4.99999 25C4.99999 24.337 5.26338 23.7011 5.73222 23.2322C6.20106 22.7634 6.83695 22.5 7.49999 22.5C8.16303 22.5 8.79891 22.7634 9.26775 23.2322C9.7366 23.7011 9.99999 24.337 9.99999 25Z" fill="black" fill-opacity="0.85"/>
</svg>
