<svg width="100" height="100" viewBox="0 0 100 100" fill="none" xmlns="http://www.w3.org/2000/svg">
<g clip-path="url(#clip0_785_18736)">
<path d="M50.0001 5.55469C41.2098 5.55469 32.617 8.16131 25.3081 13.0449C17.9993 17.9285 12.3027 24.8698 8.93882 32.991C5.57492 41.1121 4.69477 50.0484 6.40967 58.6698C8.12457 67.2912 12.3575 75.2104 18.5732 81.4261C24.7888 87.6418 32.7081 91.8747 41.3294 93.5896C49.9508 95.3045 58.8871 94.4243 67.0083 91.0604C75.1294 87.6965 82.0707 82 86.9543 74.6911C91.838 67.3823 94.4446 58.7894 94.4446 49.9991C94.4446 38.2117 89.762 26.9071 81.4271 18.5722C73.0921 10.2372 61.7875 5.55469 50.0001 5.55469ZM50.0001 88.888C42.3086 88.888 34.7899 86.6072 28.3946 82.3341C21.9994 78.0609 17.0149 71.9873 14.0715 64.8813C11.1281 57.7752 10.3579 49.956 11.8585 42.4123C13.359 34.8686 17.0628 27.9392 22.5015 22.5005C27.9402 17.0618 34.8696 13.358 42.4133 11.8575C49.957 10.3569 57.7762 11.1271 64.8823 14.0705C71.9883 17.0139 78.0619 21.9984 82.3351 28.3936C86.6082 34.7889 88.889 42.3076 88.889 49.9991C88.889 60.3131 84.7918 70.2046 77.4987 77.4977C70.2056 84.7908 60.3141 88.888 50.0001 88.888Z" fill="#37A7AE"/>
<path d="M77.778 33.6124C77.2575 33.0951 76.5535 32.8047 75.8196 32.8047C75.0858 32.8047 74.3818 33.0951 73.8613 33.6124L43.028 64.3069L26.3613 47.6402C25.853 47.0914 25.1474 46.7669 24.3999 46.7383C23.6524 46.7096 22.9241 46.9791 22.3752 47.4874C21.8264 47.9958 21.5019 48.7013 21.4733 49.4489C21.4446 50.1964 21.7141 50.9247 22.2224 51.4736L43.028 72.2236L77.778 37.5569C78.0383 37.2987 78.245 36.9914 78.386 36.6529C78.527 36.3144 78.5996 35.9514 78.5996 35.5847C78.5996 35.218 78.527 34.8549 78.386 34.5164C78.245 34.1779 78.0383 33.8707 77.778 33.6124Z" fill="#37A7AE"/>
</g>
<defs>
<clipPath id="clip0_785_18736">
<rect width="100" height="100" fill="white"/>
</clipPath>
</defs>
</svg>
