<svg width="26" height="30" viewBox="0 0 26 30" fill="none" xmlns="http://www.w3.org/2000/svg">
<g clip-path="url(#clip0_785_16023)">
<path d="M21.5778 2.3361C20.1936 0.758422 17.6915 0.0820312 14.4906 0.0820312H5.20049C4.88379 0.082043 4.57747 0.195032 4.33662 0.400684C4.09577 0.606336 3.93619 0.891161 3.88655 1.20395L0.0183389 25.7371C-0.0585486 26.2209 0.316054 26.659 0.806385 26.659H6.54175L7.98215 17.5228L7.93745 17.8089C8.04006 17.1631 8.59238 16.6867 9.24642 16.6867H11.9718C17.326 16.6867 21.5183 14.512 22.7429 8.22107C22.7793 8.03501 22.8108 7.85392 22.838 7.677C22.6834 7.59514 22.6834 7.59514 22.838 7.677C23.2027 5.3518 22.8355 3.76905 21.5778 2.3361Z" fill="#27346A"/>
<path d="M10.1766 6.83938C10.3334 6.76472 10.5049 6.72603 10.6785 6.72614H17.9618C18.8242 6.72614 19.6287 6.78226 20.3638 6.90057C20.5695 6.93337 20.7741 6.97253 20.9774 7.01799C21.2655 7.08157 21.5503 7.15938 21.8307 7.25114C22.1921 7.37183 22.5286 7.5124 22.838 7.677C23.2026 5.35091 22.8354 3.76905 21.5777 2.3361C20.1927 0.758422 17.6914 0.0820312 14.4904 0.0820312H5.19957C4.54544 0.0820312 3.98895 0.558256 3.88643 1.20395L0.0182173 25.7362C-0.0586701 26.2208 0.315933 26.6583 0.805469 26.6583H6.54163L9.53001 7.70759C9.55939 7.52132 9.63359 7.34498 9.74622 7.19374C9.85886 7.0425 10.0066 6.9209 10.1766 6.83938Z" fill="#27346A"/>
<path d="M22.7429 8.21985C21.5183 14.5099 17.326 16.6855 11.9718 16.6855H9.24559C8.59155 16.6855 8.03913 17.1618 7.93751 17.8076L6.14555 29.1674C6.0786 29.5908 6.40602 29.9744 6.83436 29.9744H11.6691C11.9461 29.9743 12.2139 29.8755 12.4245 29.6956C12.635 29.5156 12.7745 29.2665 12.8178 28.993L12.8649 28.7466L13.7761 22.9715L13.8348 22.6523C13.8781 22.3788 14.0175 22.1297 14.2281 21.9498C14.4386 21.7699 14.7064 21.671 14.9833 21.6709H15.7069C20.3904 21.6709 24.0576 19.7682 25.1293 14.2653C25.5766 11.9656 25.3452 10.0456 24.1618 8.69697C23.8029 8.2885 23.3572 7.95115 22.838 7.67578C22.8099 7.8536 22.7794 8.03379 22.7429 8.21985Z" fill="#2790C3"/>
<path d="M21.5563 7.16653C21.3654 7.11077 21.1726 7.06141 20.9784 7.01852C20.775 6.9738 20.5704 6.93491 20.3648 6.9019C19.6289 6.78279 18.8251 6.72657 17.9618 6.72657H10.6795C10.5057 6.72617 10.334 6.7652 10.1775 6.8407C10.0073 6.92197 9.85941 7.0435 9.74672 7.19479C9.63404 7.34607 9.55993 7.52254 9.53082 7.70892L7.98293 17.5233L7.93823 17.8094C8.04005 17.1636 8.59237 16.6873 9.24651 16.6873H11.9727C17.3268 16.6873 21.5191 14.5126 22.7437 8.2216C22.7802 8.03554 22.8108 7.85524 22.8389 7.67753C22.5288 7.51382 22.1931 7.37236 21.8316 7.25246C21.7404 7.22222 21.6487 7.19357 21.5564 7.16653" fill="#1F264F"/>
</g>
<defs>
<clipPath id="clip0_785_16023">
<rect width="25.44" height="30" fill="white"/>
</clipPath>
</defs>
</svg>
