<svg width="194" height="194" viewBox="0 0 194 194" fill="none" xmlns="http://www.w3.org/2000/svg">
<circle cx="96.7188" cy="96.7021" r="93.5" fill="#09969F" fill-opacity="0.6"/>
<path d="M190.158 93.4624C189.31 69.2427 179.091 46.297 161.656 29.4623C144.221 12.6275 120.931 3.21904 96.6962 3.22015L96.7151 96.7196L190.158 93.4624Z" fill="#F5665A"/>
<path d="M41.9446 172.49C53.83 181.082 67.5694 186.758 82.0528 189.06C96.5362 191.362 111.357 190.225 125.319 185.741L96.7151 96.7196L41.9446 172.49Z" fill="#FFD234"/>
<path d="M96.3315 3.22088C76.607 3.29874 57.4133 9.61237 41.4959 21.2587C25.5784 32.905 13.7527 49.2874 7.71007 68.0626C1.66749 86.8377 1.71765 107.044 7.85338 125.791C13.9891 144.537 25.8961 160.865 41.8712 172.437L96.7151 96.7196L96.3315 3.22088Z" fill="#187DDB"/>
<ellipse cx="96.9935" cy="96.9926" rx="54.8685" ry="54.8773" fill="white"/>
</svg>
