<svg width="30" height="30" viewBox="0 0 30 30" fill="none" xmlns="http://www.w3.org/2000/svg">
<path d="M11.2537 7.5C11.2537 6.50644 11.6484 5.55356 12.351 4.851C13.0536 4.14845 14.0064 3.75375 15 3.75375C15.9936 3.75375 16.9464 4.14845 17.649 4.851C18.3516 5.55356 18.7463 6.50644 18.7463 7.5C18.7463 8.49357 18.3516 9.44644 17.649 10.149C16.9464 10.8516 15.9936 11.2463 15 11.2463C14.0064 11.2463 13.0536 10.8516 12.351 10.149C11.6484 9.44644 11.2537 8.49357 11.2537 7.5ZM15 5.62875C14.7543 5.62875 14.5109 5.67715 14.2839 5.77119C14.0569 5.86523 13.8506 6.00307 13.6768 6.17683C13.5031 6.35059 13.3652 6.55688 13.2712 6.78391C13.1772 7.01094 13.1287 7.25427 13.1287 7.5C13.1287 7.74574 13.1772 7.98907 13.2712 8.2161C13.3652 8.44313 13.5031 8.64942 13.6768 8.82318C13.8506 8.99694 14.0569 9.13477 14.2839 9.22881C14.5109 9.32285 14.7543 9.37125 15 9.37125C15.4963 9.37125 15.9722 9.1741 16.3232 8.82318C16.6741 8.47225 16.8713 7.99629 16.8713 7.5C16.8713 7.00372 16.6741 6.52776 16.3232 6.17683C15.9722 5.8259 15.4963 5.62875 15 5.62875ZM20.625 8.4375C20.625 8.06816 20.6977 7.70243 20.8391 7.36121C20.9804 7.01998 21.1876 6.70993 21.4488 6.44877C21.7099 6.1876 22.02 5.98043 22.3612 5.83909C22.7024 5.69775 23.0682 5.625 23.4375 5.625C23.8068 5.625 24.1726 5.69775 24.5138 5.83909C24.855 5.98043 25.1651 6.1876 25.4262 6.44877C25.6874 6.70993 25.8946 7.01998 26.0359 7.36121C26.1773 7.70243 26.25 8.06816 26.25 8.4375C26.25 9.18342 25.9537 9.8988 25.4262 10.4262C24.8988 10.9537 24.1834 11.25 23.4375 11.25C22.6916 11.25 21.9762 10.9537 21.4488 10.4262C20.9213 9.8988 20.625 9.18342 20.625 8.4375ZM23.4375 7.5C23.1889 7.5 22.9504 7.59878 22.7746 7.77459C22.5988 7.95041 22.5 8.18886 22.5 8.4375C22.5 8.68614 22.5988 8.9246 22.7746 9.10042C22.9504 9.27623 23.1889 9.375 23.4375 9.375C23.6861 9.375 23.9246 9.27623 24.1004 9.10042C24.2762 8.9246 24.375 8.68614 24.375 8.4375C24.375 8.18886 24.2762 7.95041 24.1004 7.77459C23.9246 7.59878 23.6861 7.5 23.4375 7.5ZM6.5625 5.625C5.81658 5.625 5.10121 5.92132 4.57376 6.44877C4.04632 6.97621 3.75 7.69158 3.75 8.4375C3.75 9.18342 4.04632 9.8988 4.57376 10.4262C5.10121 10.9537 5.81658 11.25 6.5625 11.25C7.30842 11.25 8.02379 10.9537 8.55124 10.4262C9.07868 9.8988 9.375 9.18342 9.375 8.4375C9.375 7.69158 9.07868 6.97621 8.55124 6.44877C8.02379 5.92132 7.30842 5.625 6.5625 5.625ZM5.625 8.4375C5.625 8.18886 5.72377 7.95041 5.89959 7.77459C6.0754 7.59878 6.31386 7.5 6.5625 7.5C6.81114 7.5 7.0496 7.59878 7.22541 7.77459C7.40123 7.95041 7.5 8.18886 7.5 8.4375C7.5 8.68614 7.40123 8.9246 7.22541 9.10042C7.0496 9.27623 6.81114 9.375 6.5625 9.375C6.31386 9.375 6.0754 9.27623 5.89959 9.10042C5.72377 8.9246 5.625 8.68614 5.625 8.4375ZM8.0025 13.125C7.67251 13.6947 7.49914 14.3416 7.5 15H3.75V19.6875C3.74985 20.1539 3.86568 20.613 4.08706 21.0235C4.30845 21.434 4.62844 21.783 5.01823 22.039C5.40802 22.2951 5.85537 22.4502 6.32002 22.4904C6.78466 22.5307 7.25201 22.4547 7.68 22.2694C7.81875 22.89 8.03625 23.4825 8.3175 24.0356C7.60587 24.323 6.83458 24.4312 6.07136 24.3508C5.30813 24.2704 4.57633 24.0038 3.9402 23.5744C3.30408 23.1451 2.7831 22.5662 2.42301 21.8884C2.06292 21.2107 1.87474 20.455 1.875 19.6875V15C1.875 14.5027 2.07254 14.0258 2.42417 13.6742C2.77581 13.3225 3.25272 13.125 3.75 13.125H8.0025ZM21.6825 24.0356C22.3941 24.323 23.1654 24.4312 23.9286 24.3508C24.6919 24.2704 25.4237 24.0038 26.0598 23.5744C26.6959 23.1451 27.2169 22.5662 27.577 21.8884C27.9371 21.2107 28.1253 20.455 28.125 19.6875V15C28.125 14.5027 27.9275 14.0258 27.5758 13.6742C27.2242 13.3225 26.7473 13.125 26.25 13.125H21.9975C22.3162 13.6763 22.5 14.3156 22.5 15H26.25V19.6875C26.2502 20.1539 26.1343 20.613 25.9129 21.0235C25.6916 21.434 25.3716 21.783 24.9818 22.039C24.592 22.2951 24.1446 22.4502 23.68 22.4904C23.2153 22.5307 22.748 22.4547 22.32 22.2694C22.1794 22.89 21.9638 23.4825 21.6825 24.0356ZM11.25 13.1231C10.7527 13.1231 10.2758 13.3207 9.92418 13.6723C9.57254 14.0239 9.375 14.5008 9.375 14.9981V20.625C9.375 22.1168 9.96763 23.5476 11.0225 24.6025C12.0774 25.6574 13.5082 26.25 15 26.25C16.4918 26.25 17.9226 25.6574 18.9775 24.6025C20.0324 23.5476 20.625 22.1168 20.625 20.625V15C20.625 14.5027 20.4275 14.0258 20.0758 13.6742C19.7242 13.3225 19.2473 13.125 18.75 13.125H11.25V13.1231ZM11.25 14.9981H18.75V20.625C18.75 21.6196 18.3549 22.5734 17.6516 23.2767C16.9484 23.9799 15.9946 24.375 15 24.375C14.0054 24.375 13.0516 23.9799 12.3483 23.2767C11.6451 22.5734 11.25 21.6196 11.25 20.625V15V14.9981Z" fill="black" fill-opacity="0.85"/>
</svg>
