<svg width="30" height="30" viewBox="0 0 30 30" fill="none" xmlns="http://www.w3.org/2000/svg">
<path d="M15.1406 18.3867C16.3178 17.3964 17.162 16.0681 17.5588 14.5818C17.9555 13.0955 17.8856 11.5231 17.3586 10.0779C16.8315 8.63263 15.8728 7.38442 14.6124 6.50245C13.352 5.62049 11.8508 5.14745 10.3125 5.14745C8.77416 5.14745 7.27303 5.62049 6.01261 6.50245C4.7522 7.38442 3.79348 8.63263 3.26642 10.0779C2.73937 11.5231 2.66948 13.0955 3.06623 14.5818C3.46299 16.0681 4.30718 17.3964 5.48438 18.3867C3.57521 19.2507 1.93233 20.6103 0.726568 22.3242C0.512565 22.6289 0.428162 23.0061 0.491871 23.373C0.555581 23.7399 0.762201 24.0665 1.06641 24.2812C1.30226 24.4498 1.58511 24.54 1.87501 24.5391C2.10049 24.5397 2.32276 24.4857 2.52278 24.3816C2.7228 24.2775 2.8946 24.1264 3.02344 23.9414C3.84507 22.7712 4.93637 21.816 6.20509 21.1565C7.47381 20.4971 8.88265 20.1529 10.3125 20.1529C11.7424 20.1529 13.1512 20.4971 14.4199 21.1565C15.6886 21.816 16.7799 22.7712 17.6016 23.9414C17.7034 24.1024 17.8369 24.241 17.994 24.3488C18.1511 24.4567 18.3284 24.5314 18.5152 24.5687C18.7021 24.6059 18.8945 24.6047 19.0809 24.5653C19.2673 24.5259 19.4437 24.449 19.5995 24.3393C19.7553 24.2297 19.8871 24.0895 19.9871 23.9273C20.087 23.7651 20.153 23.5843 20.1809 23.3959C20.2089 23.2074 20.1983 23.0152 20.1497 22.831C20.1012 22.6468 20.0157 22.4744 19.8984 22.3242C18.6927 20.6103 17.0498 19.2507 15.1406 18.3867ZM5.62501 12.6562C5.62501 11.7291 5.89992 10.8229 6.41499 10.052C6.93006 9.28116 7.66215 8.68035 8.51868 8.32556C9.37521 7.97077 10.3177 7.87795 11.227 8.05881C12.1363 8.23968 12.9715 8.68612 13.6271 9.34168C14.2826 9.99724 14.7291 10.8325 14.9099 11.7418C15.0908 12.651 14.998 13.5935 14.6432 14.4501C14.2884 15.3066 13.6876 16.0387 12.9167 16.5538C12.1459 17.0688 11.2396 17.3437 10.3125 17.3437C9.0693 17.3437 7.87702 16.8499 6.99794 15.9708C6.11887 15.0917 5.62501 13.8994 5.62501 12.6562ZM29.1094 24.2812C28.8735 24.4498 28.5907 24.54 28.3008 24.5391C28.0757 24.5378 27.8541 24.4829 27.6544 24.379C27.4547 24.275 27.2826 24.125 27.1523 23.9414C26.329 22.7732 25.2372 21.8197 23.9688 21.1611C22.7004 20.5024 21.2925 20.1578 19.8633 20.1562C19.4903 20.1562 19.1326 20.0081 18.8689 19.7444C18.6052 19.4806 18.457 19.123 18.457 18.75C18.457 18.377 18.6052 18.0194 18.8689 17.7556C19.1326 17.4919 19.4903 17.3437 19.8633 17.3437C21.1065 17.3437 22.2988 16.8499 23.1779 15.9708C24.0569 15.0917 24.5508 13.8994 24.5508 12.6562C24.5508 11.413 24.0569 10.2208 23.1779 9.34168C22.2988 8.46261 21.1065 7.96875 19.8633 7.96875C19.4353 7.96794 19.0093 8.02711 18.5977 8.14453C18.4189 8.19784 18.2314 8.21507 18.0459 8.1952C17.8605 8.17533 17.6808 8.11877 17.5174 8.02881C17.354 7.93885 17.2102 7.81728 17.0942 7.67119C16.9783 7.5251 16.8925 7.3574 16.842 7.17786C16.7915 6.99831 16.7772 6.81051 16.8 6.62539C16.8227 6.44027 16.8821 6.26152 16.9746 6.09955C17.0671 5.93759 17.1909 5.79564 17.3387 5.68198C17.4866 5.56832 17.6556 5.48521 17.8359 5.4375C18.4953 5.24977 19.1777 5.15511 19.8633 5.15625C21.4027 5.15178 22.906 5.62183 24.1686 6.50242C25.4313 7.38301 26.3918 8.63133 26.9196 10.0774C27.4473 11.5235 27.5165 13.0971 27.1178 14.584C26.7191 16.0708 25.8718 17.3987 24.6914 18.3867C26.6006 19.2507 28.2435 20.6103 29.4492 22.3242C29.5567 22.4746 29.6332 22.6448 29.6744 22.825C29.7155 23.0052 29.7204 23.1917 29.6888 23.3738C29.6571 23.5559 29.5896 23.7299 29.4902 23.8857C29.3907 24.0415 29.2613 24.1759 29.1094 24.2812Z" fill="black" fill-opacity="0.85"/>
</svg>
